<mxfile host="app.diagrams.net" agent="Mozilla/5.0 (Windows NT 10.0; Win64; x64) AppleWebKit/537.36 (KHTML, like Gecko) Chrome/131.0.0.0 Safari/537.36 Edg/131.0.0.0" version="26.0.2">
  <diagram name="Page-1" id="jpOmHjtzmyeVyul5uE7t">
    <mxGraphModel grid="1" page="1" gridSize="10" guides="1" tooltips="1" connect="1" arrows="1" fold="1" pageScale="1" pageWidth="850" pageHeight="1100" math="0" shadow="0">
      <root>
        <mxCell id="0" />
        <mxCell id="1" parent="0" />
        <mxCell id="UUf20WpHJSjdFGinSqG3-49" value="IMM&lt;div&gt;PICK&lt;/div&gt;" style="rounded=0;whiteSpace=wrap;html=1;" vertex="1" parent="1">
          <mxGeometry x="580" y="421.25" width="60" height="74.75" as="geometry" />
        </mxCell>
        <mxCell id="p3kReN-Q5fiopgWanENs-17" value="" style="edgeStyle=segmentEdgeStyle;endArrow=classic;html=1;curved=0;rounded=0;endSize=8;startSize=8;sourcePerimeterSpacing=0;targetPerimeterSpacing=0;entryX=1;entryY=0.25;entryDx=0;entryDy=0;" edge="1" parent="1" target="r9BbCS2eWBdrAhoELMwX-11">
          <mxGeometry width="100" relative="1" as="geometry">
            <mxPoint x="1090" y="397.5" as="sourcePoint" />
            <mxPoint x="1070" y="570" as="targetPoint" />
            <Array as="points">
              <mxPoint x="1090" y="643" />
            </Array>
          </mxGeometry>
        </mxCell>
        <mxCell id="r9BbCS2eWBdrAhoELMwX-15" value="" style="edgeStyle=orthogonalEdgeStyle;rounded=0;orthogonalLoop=1;jettySize=auto;html=1;entryX=0.015;entryY=0.846;entryDx=0;entryDy=0;entryPerimeter=0;" edge="1" parent="1" source="r9BbCS2eWBdrAhoELMwX-1" target="r9BbCS2eWBdrAhoELMwX-4">
          <mxGeometry relative="1" as="geometry" />
        </mxCell>
        <mxCell id="r9BbCS2eWBdrAhoELMwX-1" value="PC" style="rounded=0;whiteSpace=wrap;html=1;" vertex="1" parent="1">
          <mxGeometry x="200" y="157.55" width="60" height="40" as="geometry" />
        </mxCell>
        <mxCell id="r9BbCS2eWBdrAhoELMwX-27" style="edgeStyle=orthogonalEdgeStyle;rounded=0;orthogonalLoop=1;jettySize=auto;html=1;entryX=0.045;entryY=0.763;entryDx=0;entryDy=0;entryPerimeter=0;exitX=0.983;exitY=0.525;exitDx=0;exitDy=0;exitPerimeter=0;strokeColor=light-dark(#000000,#00CC00);" edge="1" parent="1" source="r9BbCS2eWBdrAhoELMwX-2" target="r9BbCS2eWBdrAhoELMwX-14">
          <mxGeometry relative="1" as="geometry">
            <mxPoint x="380" y="608" as="sourcePoint" />
            <Array as="points" />
          </mxGeometry>
        </mxCell>
        <mxCell id="r9BbCS2eWBdrAhoELMwX-2" value="Instruction Memory" style="rounded=0;whiteSpace=wrap;html=1;" vertex="1" parent="1">
          <mxGeometry x="240" y="540" width="80" height="130" as="geometry" />
        </mxCell>
        <mxCell id="r9BbCS2eWBdrAhoELMwX-19" style="edgeStyle=orthogonalEdgeStyle;rounded=0;orthogonalLoop=1;jettySize=auto;html=1;exitX=0.5;exitY=0;exitDx=0;exitDy=0;entryX=0.5;entryY=0;entryDx=0;entryDy=0;" edge="1" parent="1" source="r9BbCS2eWBdrAhoELMwX-3" target="r9BbCS2eWBdrAhoELMwX-1">
          <mxGeometry relative="1" as="geometry" />
        </mxCell>
        <mxCell id="r9BbCS2eWBdrAhoELMwX-3" value="M&lt;br&gt;U&lt;br&gt;X" style="shape=trapezoid;perimeter=trapezoidPerimeter;whiteSpace=wrap;html=1;rotation=90;horizontal=0;" vertex="1" parent="1">
          <mxGeometry x="50" y="91.30000000000001" width="80" height="27.5" as="geometry" />
        </mxCell>
        <mxCell id="r9BbCS2eWBdrAhoELMwX-18" value="" style="edgeStyle=orthogonalEdgeStyle;rounded=0;orthogonalLoop=1;jettySize=auto;html=1;exitX=0.678;exitY=0.503;exitDx=0;exitDy=0;exitPerimeter=0;entryX=-0.035;entryY=0.191;entryDx=0;entryDy=0;entryPerimeter=0;" edge="1" parent="1" source="r9BbCS2eWBdrAhoELMwX-4">
          <mxGeometry relative="1" as="geometry">
            <mxPoint x="470.00000000000006" y="154.37000000000006" as="targetPoint" />
            <Array as="points">
              <mxPoint x="420" y="154.05" />
              <mxPoint x="420" y="154.05" />
            </Array>
          </mxGeometry>
        </mxCell>
        <mxCell id="r9BbCS2eWBdrAhoELMwX-4" value="PC&lt;div&gt;&amp;nbsp;Adder&lt;/div&gt;" style="shape=stencil(vZXdjoMgEIWfhtsGYY3XG3f3PailKykFA/Tv7TuKNmJL2zRiYgwwx+8wZAYRLW3NGo4IrhH9QYRkGMMb5qfJnNmGV84vHpkRbC25j1hn9I6fxMb1DKFqboRro/QX4W/QtM9tQMtKKwU0oZUNJBPhSA4mTChg4rM36bd1CWYN+O6546bfvF9F5O9jl1W+iE+2TDahy5Bb6myS+YT5ZAvVQCqfbDYXWoIg1mMj1ZpVu3+jD2rzkhaRjkRbbfhr2E0tpPQXx/uH1rD2hrnTPVQP3+z1kUcb4NlhPqVKoUbUIsSSPA23mIs7aZvhhp+ZmxczYafcNNv9oh9jK6ltvIwjxQziSD3fSd/tkw4aaUMYdGH/u+8iVw==);whiteSpace=wrap;html=1;strokeColor=#000000;fillColor=#ffffff;fontSize=10;align=center;" vertex="1" parent="1">
          <mxGeometry x="321.05" y="118.80000000000001" width="80" height="70" as="geometry" />
        </mxCell>
        <mxCell id="r9BbCS2eWBdrAhoELMwX-5" value="Control&amp;nbsp; &amp;nbsp; &amp;nbsp; &amp;nbsp; &amp;nbsp; &amp;nbsp; &amp;nbsp; &amp;nbsp; &amp;nbsp;&lt;div&gt;Unit&amp;nbsp; &amp;nbsp; &amp;nbsp; &amp;nbsp; &amp;nbsp; &amp;nbsp; &amp;nbsp; &amp;nbsp;&amp;nbsp;&lt;/div&gt;" style="rounded=0;whiteSpace=wrap;html=1;" vertex="1" parent="1">
          <mxGeometry x="580" y="170" width="130" height="180" as="geometry" />
        </mxCell>
        <mxCell id="r9BbCS2eWBdrAhoELMwX-6" value="&lt;b&gt;Reg File&lt;/b&gt;" style="rounded=0;whiteSpace=wrap;html=1;" vertex="1" parent="1">
          <mxGeometry x="620" y="520" width="130" height="150" as="geometry" />
        </mxCell>
        <mxCell id="r9BbCS2eWBdrAhoELMwX-7" value="IMM&lt;div&gt;SELECT&lt;/div&gt;" style="shape=trapezoid;perimeter=trapezoidPerimeter;whiteSpace=wrap;html=1;rotation=90;horizontal=0;" vertex="1" parent="1">
          <mxGeometry x="908.75" y="428.75" width="80" height="50" as="geometry" />
        </mxCell>
        <mxCell id="r9BbCS2eWBdrAhoELMwX-8" value="PC&lt;div&gt;SELECT&lt;/div&gt;" style="shape=trapezoid;perimeter=trapezoidPerimeter;whiteSpace=wrap;html=1;rotation=90;horizontal=0;" vertex="1" parent="1">
          <mxGeometry x="885" y="322.5" width="70" height="47.5" as="geometry" />
        </mxCell>
        <mxCell id="r9BbCS2eWBdrAhoELMwX-9" value="JAL SLECT" style="shape=trapezoid;perimeter=trapezoidPerimeter;whiteSpace=wrap;html=1;rotation=90;horizontal=0;" vertex="1" parent="1">
          <mxGeometry x="1133.75" y="313.75" width="80" height="55" as="geometry" />
        </mxCell>
        <mxCell id="r9BbCS2eWBdrAhoELMwX-78" style="edgeStyle=orthogonalEdgeStyle;rounded=0;orthogonalLoop=1;jettySize=auto;html=1;entryX=0.75;entryY=1;entryDx=0;entryDy=0;exitX=0.717;exitY=0.494;exitDx=0;exitDy=0;exitPerimeter=0;" edge="1" parent="1" source="r9BbCS2eWBdrAhoELMwX-10" target="r9BbCS2eWBdrAhoELMwX-9">
          <mxGeometry relative="1" as="geometry" />
        </mxCell>
        <mxCell id="r9BbCS2eWBdrAhoELMwX-10" value="&amp;nbsp; &amp;nbsp; &amp;nbsp; &amp;nbsp;ALU" style="shape=stencil(vZXdjoMgEIWfhtsGYY3XG3f3PailKykFA/Tv7TuKNmJL2zRiYgwwx+8wZAYRLW3NGo4IrhH9QYRkGMMb5qfJnNmGV84vHpkRbC25j1hn9I6fxMb1DKFqboRro/QX4W/QtM9tQMtKKwU0oZUNJBPhSA4mTChg4rM36bd1CWYN+O6546bfvF9F5O9jl1W+iE+2TDahy5Bb6myS+YT5ZAvVQCqfbDYXWoIg1mMj1ZpVu3+jD2rzkhaRjkRbbfhr2E0tpPQXx/uH1rD2hrnTPVQP3+z1kUcb4NlhPqVKoUbUIsSSPA23mIs7aZvhhp+ZmxczYafcNNv9oh9jK6ltvIwjxQziSD3fSd/tkw4aaUMYdGH/u+8iVw==);whiteSpace=wrap;html=1;strokeColor=#000000;fillColor=#ffffff;fontSize=10;align=left;" vertex="1" parent="1">
          <mxGeometry x="1010" y="311.25" width="80" height="170" as="geometry" />
        </mxCell>
        <mxCell id="r9BbCS2eWBdrAhoELMwX-11" value="Branch&lt;div&gt;Control Unit&lt;/div&gt;" style="rounded=0;whiteSpace=wrap;html=1;" vertex="1" parent="1">
          <mxGeometry x="950" y="630" width="80" height="53.75" as="geometry" />
        </mxCell>
        <mxCell id="r9BbCS2eWBdrAhoELMwX-12" value="Data Memory" style="rounded=0;whiteSpace=wrap;html=1;" vertex="1" parent="1">
          <mxGeometry x="1330" y="290" width="120" height="160" as="geometry" />
        </mxCell>
        <mxCell id="r9BbCS2eWBdrAhoELMwX-13" value="DATA&lt;div&gt;MEM&lt;/div&gt;&lt;div&gt;SELECT&lt;/div&gt;" style="shape=trapezoid;perimeter=trapezoidPerimeter;whiteSpace=wrap;html=1;rotation=90;horizontal=0;" vertex="1" parent="1">
          <mxGeometry x="1607.03" y="247.02" width="80" height="59.05" as="geometry" />
        </mxCell>
        <mxCell id="r9BbCS2eWBdrAhoELMwX-40" style="edgeStyle=orthogonalEdgeStyle;rounded=0;orthogonalLoop=1;jettySize=auto;html=1;entryX=0;entryY=0.5;entryDx=0;entryDy=0;" edge="1" parent="1">
          <mxGeometry relative="1" as="geometry">
            <mxPoint x="500" y="370" as="sourcePoint" />
            <mxPoint x="810" y="370" as="targetPoint" />
          </mxGeometry>
        </mxCell>
        <mxCell id="r9BbCS2eWBdrAhoELMwX-14" value="&lt;span style=&quot;color: rgba(0, 0, 0, 0); font-family: monospace; font-size: 0px; text-align: start; text-wrap-mode: nowrap;&quot;&gt;%3CmxGraphModel%3E%3Croot%3E%3CmxCell%20id%3D%220%22%2F%3E%3CmxCell%20id%3D%221%22%20parent%3D%220%22%2F%3E%3CmxCell%20id%3D%222%22%20value%3D%22%22%20style%3D%22rounded%3D0%3BwhiteSpace%3Dwrap%3Bhtml%3D1%3B%22%20vertex%3D%221%22%20parent%3D%221%22%3E%3CmxGeometry%20x%3D%22820%22%20y%3D%22130%22%20width%3D%2230%22%20height%3D%22615%22%20as%3D%22geometry%22%2F%3E%3C%2FmxCell%3E%3C%2Froot%3E%3C%2FmxGraphModel%3E&lt;/span&gt;" style="rounded=0;whiteSpace=wrap;html=1;" vertex="1" parent="1">
          <mxGeometry x="470" y="40" width="30" height="720" as="geometry" />
        </mxCell>
        <mxCell id="r9BbCS2eWBdrAhoELMwX-16" value="" style="endArrow=classic;html=1;rounded=0;entryX=-0.025;entryY=0.206;entryDx=0;entryDy=0;entryPerimeter=0;" edge="1" parent="1">
          <mxGeometry width="50" height="50" relative="1" as="geometry">
            <mxPoint x="281.05" y="133.05" as="sourcePoint" />
            <mxPoint x="321.05" y="133.22000000000003" as="targetPoint" />
          </mxGeometry>
        </mxCell>
        <mxCell id="r9BbCS2eWBdrAhoELMwX-17" value="4" style="text;html=1;align=center;verticalAlign=middle;resizable=0;points=[];autosize=1;strokeColor=none;fillColor=none;" vertex="1" parent="1">
          <mxGeometry x="260" y="118.80000000000001" width="30" height="30" as="geometry" />
        </mxCell>
        <mxCell id="r9BbCS2eWBdrAhoELMwX-21" value="" style="edgeStyle=none;orthogonalLoop=1;jettySize=auto;html=1;rounded=0;entryX=0;entryY=0.25;entryDx=0;entryDy=0;" edge="1" parent="1" target="r9BbCS2eWBdrAhoELMwX-1">
          <mxGeometry width="100" relative="1" as="geometry">
            <mxPoint x="140" y="168.05" as="sourcePoint" />
            <mxPoint x="190" y="170.05" as="targetPoint" />
            <Array as="points" />
          </mxGeometry>
        </mxCell>
        <mxCell id="r9BbCS2eWBdrAhoELMwX-22" value="" style="edgeStyle=none;orthogonalLoop=1;jettySize=auto;html=1;rounded=0;entryX=0;entryY=0.25;entryDx=0;entryDy=0;" edge="1" parent="1" source="r9BbCS2eWBdrAhoELMwX-44">
          <mxGeometry width="100" relative="1" as="geometry">
            <mxPoint x="140" y="188.8" as="sourcePoint" />
            <mxPoint x="200" y="188.8" as="targetPoint" />
            <Array as="points" />
          </mxGeometry>
        </mxCell>
        <mxCell id="r9BbCS2eWBdrAhoELMwX-23" value="RESET" style="text;html=1;align=center;verticalAlign=middle;resizable=0;points=[];autosize=1;strokeColor=none;fillColor=none;" vertex="1" parent="1">
          <mxGeometry x="90" y="148.8" width="60" height="30" as="geometry" />
        </mxCell>
        <mxCell id="r9BbCS2eWBdrAhoELMwX-24" value="CLC" style="text;html=1;align=center;verticalAlign=middle;resizable=0;points=[];autosize=1;strokeColor=none;fillColor=none;" vertex="1" parent="1">
          <mxGeometry x="95" y="175.05" width="50" height="30" as="geometry" />
        </mxCell>
        <mxCell id="r9BbCS2eWBdrAhoELMwX-26" value="" style="edgeStyle=none;orthogonalLoop=1;jettySize=auto;html=1;rounded=0;" edge="1" parent="1">
          <mxGeometry width="100" relative="1" as="geometry">
            <mxPoint x="293" y="180" as="sourcePoint" />
            <mxPoint x="293" y="540" as="targetPoint" />
            <Array as="points" />
          </mxGeometry>
        </mxCell>
        <mxCell id="r9BbCS2eWBdrAhoELMwX-29" value="" style="edgeStyle=segmentEdgeStyle;endArrow=classic;html=1;curved=0;rounded=0;endSize=8;startSize=8;sourcePerimeterSpacing=0;targetPerimeterSpacing=0;entryX=0;entryY=0.5;entryDx=0;entryDy=0;" edge="1" parent="1">
          <mxGeometry width="100" relative="1" as="geometry">
            <mxPoint x="290" y="410" as="sourcePoint" />
            <mxPoint x="470" y="367.5" as="targetPoint" />
            <Array as="points">
              <mxPoint x="370" y="410" />
              <mxPoint x="370" y="368" />
              <mxPoint x="450" y="368" />
            </Array>
          </mxGeometry>
        </mxCell>
        <mxCell id="r9BbCS2eWBdrAhoELMwX-30" value="" style="edgeStyle=segmentEdgeStyle;endArrow=classic;html=1;curved=0;rounded=0;endSize=8;startSize=8;sourcePerimeterSpacing=0;targetPerimeterSpacing=0;" edge="1" parent="1">
          <mxGeometry width="100" relative="1" as="geometry">
            <mxPoint x="410" y="150.05" as="sourcePoint" />
            <mxPoint x="75" y="80.05000000000001" as="targetPoint" />
            <Array as="points">
              <mxPoint x="410" y="30.05000000000001" />
              <mxPoint x="40" y="30.05000000000001" />
              <mxPoint x="40" y="80.05000000000001" />
            </Array>
          </mxGeometry>
        </mxCell>
        <mxCell id="r9BbCS2eWBdrAhoELMwX-31" value="" style="edgeStyle=none;orthogonalLoop=1;jettySize=auto;html=1;rounded=0;exitX=0.953;exitY=0.702;exitDx=0;exitDy=0;exitPerimeter=0;strokeColor=light-dark(#000000,#00CC00);" edge="1" parent="1">
          <mxGeometry width="100" relative="1" as="geometry">
            <mxPoint x="500.00000000000017" y="589.84" as="sourcePoint" />
            <mxPoint x="620" y="590.15" as="targetPoint" />
            <Array as="points" />
          </mxGeometry>
        </mxCell>
        <mxCell id="r9BbCS2eWBdrAhoELMwX-35" value="&lt;span style=&quot;color: rgba(0, 0, 0, 0); font-family: monospace; font-size: 0px; text-align: start; text-wrap-mode: nowrap;&quot;&gt;%3CmxGraphModel%3E%3Croot%3E%3CmxCell%20id%3D%220%22%2F%3E%3CmxCell%20id%3D%221%22%20parent%3D%220%22%2F%3E%3CmxCell%20id%3D%222%22%20value%3D%22%22%20style%3D%22rounded%3D0%3BwhiteSpace%3Dwrap%3Bhtml%3D1%3B%22%20vertex%3D%221%22%20parent%3D%221%22%3E%3CmxGeometry%20x%3D%22820%22%20y%3D%22130%22%20width%3D%2230%22%20height%3D%22615%22%20as%3D%22geometry%22%2F%3E%3C%2FmxCell%3E%3C%2Froot%3E%3C%2FmxGraphModel%3E&lt;/span&gt;" style="rounded=0;whiteSpace=wrap;html=1;" vertex="1" parent="1">
          <mxGeometry x="810" y="40" width="30" height="720" as="geometry" />
        </mxCell>
        <mxCell id="r9BbCS2eWBdrAhoELMwX-36" value="&lt;span style=&quot;color: rgba(0, 0, 0, 0); font-family: monospace; font-size: 0px; text-align: start; text-wrap-mode: nowrap;&quot;&gt;%3CmxGraphModel%3E%3Croot%3E%3CmxCell%20id%3D%220%22%2F%3E%3CmxCell%20id%3D%221%22%20parent%3D%220%22%2F%3E%3CmxCell%20id%3D%222%22%20value%3D%22%22%20style%3D%22rounded%3D0%3BwhiteSpace%3Dwrap%3Bhtml%3D1%3B%22%20vertex%3D%221%22%20parent%3D%221%22%3E%3CmxGeometry%20x%3D%22820%22%20y%3D%22130%22%20width%3D%2230%22%20height%3D%22615%22%20as%3D%22geometry%22%2F%3E%3C%2FmxCell%3E%3C%2Froot%3E%3C%2FmxGraphModel%3E&lt;/span&gt;" style="rounded=0;whiteSpace=wrap;html=1;" vertex="1" parent="1">
          <mxGeometry x="1240" y="40" width="30" height="720" as="geometry" />
        </mxCell>
        <mxCell id="r9BbCS2eWBdrAhoELMwX-37" value="&lt;span style=&quot;color: rgba(0, 0, 0, 0); font-family: monospace; font-size: 0px; text-align: start; text-wrap-mode: nowrap;&quot;&gt;%3CmxGraphModel%3E%3Croot%3E%3CmxCell%20id%3D%220%22%2F%3E%3CmxCell%20id%3D%221%22%20parent%3D%220%22%2F%3E%3CmxCell%20id%3D%222%22%20value%3D%22%22%20style%3D%22rounded%3D0%3BwhiteSpace%3Dwrap%3Bhtml%3D1%3B%22%20vertex%3D%221%22%20parent%3D%221%22%3E%3CmxGeometry%20x%3D%22820%22%20y%3D%22130%22%20width%3D%2230%22%20height%3D%22615%22%20as%3D%22geometry%22%2F%3E%3C%2FmxCell%3E%3C%2Froot%3E%3C%2FmxGraphModel%3E&lt;/span&gt;" style="rounded=0;whiteSpace=wrap;html=1;" vertex="1" parent="1">
          <mxGeometry x="1490" y="40" width="30" height="720" as="geometry" />
        </mxCell>
        <mxCell id="r9BbCS2eWBdrAhoELMwX-38" value="" style="edgeStyle=segmentEdgeStyle;endArrow=classic;html=1;curved=0;rounded=0;endSize=8;startSize=8;sourcePerimeterSpacing=0;targetPerimeterSpacing=0;exitX=0.25;exitY=1;exitDx=0;exitDy=0;entryX=1;entryY=0.5;entryDx=0;entryDy=0;" edge="1" parent="1" source="r9BbCS2eWBdrAhoELMwX-11" target="r9BbCS2eWBdrAhoELMwX-3">
          <mxGeometry width="100" relative="1" as="geometry">
            <mxPoint x="970" y="710" as="sourcePoint" />
            <mxPoint x="1070" y="730" as="targetPoint" />
            <Array as="points">
              <mxPoint x="970" y="780" />
              <mxPoint x="90" y="780" />
            </Array>
          </mxGeometry>
        </mxCell>
        <mxCell id="r9BbCS2eWBdrAhoELMwX-39" value="" style="edgeStyle=segmentEdgeStyle;endArrow=classic;html=1;curved=0;rounded=0;endSize=8;startSize=8;sourcePerimeterSpacing=0;targetPerimeterSpacing=0;exitX=0.75;exitY=1;exitDx=0;exitDy=0;entryX=0.676;entryY=1.086;entryDx=0;entryDy=0;entryPerimeter=0;" edge="1" parent="1" source="r9BbCS2eWBdrAhoELMwX-11" target="r9BbCS2eWBdrAhoELMwX-3">
          <mxGeometry width="100" relative="1" as="geometry">
            <mxPoint x="980" y="694" as="sourcePoint" />
            <mxPoint x="70" y="120" as="targetPoint" />
            <Array as="points">
              <mxPoint x="1010" y="810" />
              <mxPoint x="20" y="810" />
              <mxPoint x="20" y="119" />
            </Array>
          </mxGeometry>
        </mxCell>
        <mxCell id="r9BbCS2eWBdrAhoELMwX-41" value="" style="edgeStyle=none;orthogonalLoop=1;jettySize=auto;html=1;rounded=0;entryX=0.5;entryY=1;entryDx=0;entryDy=0;" edge="1" parent="1" target="r9BbCS2eWBdrAhoELMwX-6">
          <mxGeometry width="100" relative="1" as="geometry">
            <mxPoint x="685" y="708.75" as="sourcePoint" />
            <mxPoint x="720" y="708.75" as="targetPoint" />
            <Array as="points" />
          </mxGeometry>
        </mxCell>
        <mxCell id="r9BbCS2eWBdrAhoELMwX-42" value="" style="edgeStyle=none;orthogonalLoop=1;jettySize=auto;html=1;rounded=0;entryX=0.5;entryY=1;entryDx=0;entryDy=0;" edge="1" parent="1">
          <mxGeometry width="100" relative="1" as="geometry">
            <mxPoint x="732.81" y="709" as="sourcePoint" />
            <mxPoint x="732.81" y="670" as="targetPoint" />
            <Array as="points" />
          </mxGeometry>
        </mxCell>
        <mxCell id="r9BbCS2eWBdrAhoELMwX-43" value="CLK" style="text;html=1;align=center;verticalAlign=middle;resizable=0;points=[];autosize=1;strokeColor=none;fillColor=none;" vertex="1" parent="1">
          <mxGeometry x="660" y="698.75" width="50" height="30" as="geometry" />
        </mxCell>
        <mxCell id="r9BbCS2eWBdrAhoELMwX-45" value="" style="edgeStyle=none;orthogonalLoop=1;jettySize=auto;html=1;rounded=0;entryX=0;entryY=0.25;entryDx=0;entryDy=0;" edge="1" parent="1" target="r9BbCS2eWBdrAhoELMwX-44">
          <mxGeometry width="100" relative="1" as="geometry">
            <mxPoint x="140" y="188.8" as="sourcePoint" />
            <mxPoint x="200" y="188.8" as="targetPoint" />
            <Array as="points" />
          </mxGeometry>
        </mxCell>
        <mxCell id="r9BbCS2eWBdrAhoELMwX-44" value="" style="triangle;whiteSpace=wrap;html=1;strokeColor=#000000;fillColor=#ffffff;fontSize=10;align=right;" vertex="1" parent="1">
          <mxGeometry x="200" y="186.05" width="6" height="8" as="geometry" />
        </mxCell>
        <mxCell id="r9BbCS2eWBdrAhoELMwX-46" value="" style="triangle;whiteSpace=wrap;html=1;strokeColor=#000000;fillColor=#ffffff;fontSize=10;align=right;rotation=-90;" vertex="1" parent="1">
          <mxGeometry x="682" y="662" width="6" height="8" as="geometry" />
        </mxCell>
        <mxCell id="r9BbCS2eWBdrAhoELMwX-47" value="RESET" style="text;html=1;align=center;verticalAlign=middle;resizable=0;points=[];autosize=1;strokeColor=none;fillColor=none;" vertex="1" parent="1">
          <mxGeometry x="705" y="698.75" width="60" height="30" as="geometry" />
        </mxCell>
        <mxCell id="r9BbCS2eWBdrAhoELMwX-48" value="" style="edgeStyle=segmentEdgeStyle;endArrow=classic;html=1;curved=0;rounded=0;endSize=8;startSize=8;sourcePerimeterSpacing=0;targetPerimeterSpacing=0;strokeColor=light-dark(#000000,#00CC00);" edge="1" parent="1" target="r9BbCS2eWBdrAhoELMwX-5">
          <mxGeometry width="100" relative="1" as="geometry">
            <mxPoint x="520" y="740" as="sourcePoint" />
            <mxPoint x="580" y="188.8" as="targetPoint" />
            <Array as="points">
              <mxPoint x="510" y="740" />
              <mxPoint x="510" y="189" />
            </Array>
          </mxGeometry>
        </mxCell>
        <mxCell id="r9BbCS2eWBdrAhoELMwX-49" value="" style="endArrow=classic;html=1;rounded=0;entryX=-0.009;entryY=0.28;entryDx=0;entryDy=0;entryPerimeter=0;strokeColor=light-dark(#000000,#00CC00);" edge="1" parent="1" target="r9BbCS2eWBdrAhoELMwX-5">
          <mxGeometry width="50" height="50" relative="1" as="geometry">
            <mxPoint x="510" y="220" as="sourcePoint" />
            <mxPoint x="580" y="220" as="targetPoint" />
          </mxGeometry>
        </mxCell>
        <mxCell id="r9BbCS2eWBdrAhoELMwX-50" value="" style="endArrow=classic;html=1;rounded=0;entryX=-0.009;entryY=0.441;entryDx=0;entryDy=0;entryPerimeter=0;strokeColor=light-dark(#000000,#00CC00);" edge="1" parent="1" target="r9BbCS2eWBdrAhoELMwX-5">
          <mxGeometry width="50" height="50" relative="1" as="geometry">
            <mxPoint x="510" y="250" as="sourcePoint" />
            <mxPoint x="580" y="250" as="targetPoint" />
          </mxGeometry>
        </mxCell>
        <mxCell id="r9BbCS2eWBdrAhoELMwX-51" value="" style="endArrow=classic;html=1;rounded=0;entryX=-0.053;entryY=0.149;entryDx=0;entryDy=0;entryPerimeter=0;exitX=0.907;exitY=0.157;exitDx=0;exitDy=0;exitPerimeter=0;" edge="1" parent="1" source="r9BbCS2eWBdrAhoELMwX-14" target="r9BbCS2eWBdrAhoELMwX-35">
          <mxGeometry width="50" height="50" relative="1" as="geometry">
            <mxPoint x="730" y="240" as="sourcePoint" />
            <mxPoint x="780" y="190" as="targetPoint" />
          </mxGeometry>
        </mxCell>
        <mxCell id="r9BbCS2eWBdrAhoELMwX-52" value="" style="endArrow=classic;html=1;rounded=0;entryX=-0.107;entryY=0.191;entryDx=0;entryDy=0;entryPerimeter=0;exitX=1.011;exitY=0.045;exitDx=0;exitDy=0;exitPerimeter=0;fillColor=#f8cecc;strokeColor=#b85450;" edge="1" parent="1" source="r9BbCS2eWBdrAhoELMwX-5" target="r9BbCS2eWBdrAhoELMwX-35">
          <mxGeometry width="50" height="50" relative="1" as="geometry">
            <mxPoint x="760" y="228.8" as="sourcePoint" />
            <mxPoint x="810" y="178.8" as="targetPoint" />
          </mxGeometry>
        </mxCell>
        <mxCell id="r9BbCS2eWBdrAhoELMwX-53" value="" style="endArrow=classic;html=1;rounded=0;entryX=-0.008;entryY=0.094;entryDx=0;entryDy=0;entryPerimeter=0;exitX=1.011;exitY=0.045;exitDx=0;exitDy=0;exitPerimeter=0;fillColor=#f8cecc;strokeColor=#b85450;" edge="1" parent="1">
          <mxGeometry width="50" height="50" relative="1" as="geometry">
            <mxPoint x="711" y="197.55" as="sourcePoint" />
            <mxPoint x="810" y="197.55" as="targetPoint" />
          </mxGeometry>
        </mxCell>
        <mxCell id="r9BbCS2eWBdrAhoELMwX-54" value="" style="endArrow=classic;html=1;rounded=0;entryX=-0.008;entryY=0.094;entryDx=0;entryDy=0;entryPerimeter=0;exitX=1.011;exitY=0.045;exitDx=0;exitDy=0;exitPerimeter=0;fillColor=#f8cecc;strokeColor=#b85450;" edge="1" parent="1">
          <mxGeometry width="50" height="50" relative="1" as="geometry">
            <mxPoint x="711" y="220" as="sourcePoint" />
            <mxPoint x="810" y="220" as="targetPoint" />
          </mxGeometry>
        </mxCell>
        <mxCell id="r9BbCS2eWBdrAhoELMwX-55" value="" style="endArrow=classic;html=1;rounded=0;entryX=-0.008;entryY=0.094;entryDx=0;entryDy=0;entryPerimeter=0;exitX=1.011;exitY=0.045;exitDx=0;exitDy=0;exitPerimeter=0;fillColor=#f8cecc;strokeColor=#b85450;" edge="1" parent="1">
          <mxGeometry width="50" height="50" relative="1" as="geometry">
            <mxPoint x="711" y="240" as="sourcePoint" />
            <mxPoint x="810" y="240" as="targetPoint" />
          </mxGeometry>
        </mxCell>
        <mxCell id="r9BbCS2eWBdrAhoELMwX-56" value="" style="endArrow=classic;html=1;rounded=0;entryX=-0.008;entryY=0.094;entryDx=0;entryDy=0;entryPerimeter=0;exitX=1.011;exitY=0.045;exitDx=0;exitDy=0;exitPerimeter=0;fillColor=#f8cecc;strokeColor=#b85450;" edge="1" parent="1">
          <mxGeometry width="50" height="50" relative="1" as="geometry">
            <mxPoint x="711" y="254.71" as="sourcePoint" />
            <mxPoint x="810" y="254.71" as="targetPoint" />
          </mxGeometry>
        </mxCell>
        <mxCell id="r9BbCS2eWBdrAhoELMwX-58" value="" style="endArrow=classic;html=1;rounded=0;entryX=-0.008;entryY=0.094;entryDx=0;entryDy=0;entryPerimeter=0;exitX=1.011;exitY=0.045;exitDx=0;exitDy=0;exitPerimeter=0;fillColor=#f8cecc;strokeColor=#b85450;" edge="1" parent="1">
          <mxGeometry width="50" height="50" relative="1" as="geometry">
            <mxPoint x="711" y="280.25" as="sourcePoint" />
            <mxPoint x="810" y="280.25" as="targetPoint" />
          </mxGeometry>
        </mxCell>
        <mxCell id="r9BbCS2eWBdrAhoELMwX-59" value="" style="endArrow=classic;html=1;rounded=0;entryX=-0.008;entryY=0.094;entryDx=0;entryDy=0;entryPerimeter=0;exitX=1.011;exitY=0.045;exitDx=0;exitDy=0;exitPerimeter=0;fillColor=#f8cecc;strokeColor=#b85450;" edge="1" parent="1">
          <mxGeometry width="50" height="50" relative="1" as="geometry">
            <mxPoint x="711" y="303.46" as="sourcePoint" />
            <mxPoint x="810" y="303.46" as="targetPoint" />
          </mxGeometry>
        </mxCell>
        <mxCell id="r9BbCS2eWBdrAhoELMwX-60" value="" style="endArrow=classic;html=1;rounded=0;entryX=-0.008;entryY=0.094;entryDx=0;entryDy=0;entryPerimeter=0;exitX=1.011;exitY=0.045;exitDx=0;exitDy=0;exitPerimeter=0;fillColor=#f8cecc;strokeColor=#b85450;" edge="1" parent="1">
          <mxGeometry width="50" height="50" relative="1" as="geometry">
            <mxPoint x="711" y="317.5" as="sourcePoint" />
            <mxPoint x="810" y="317.5" as="targetPoint" />
          </mxGeometry>
        </mxCell>
        <mxCell id="r9BbCS2eWBdrAhoELMwX-61" value="" style="endArrow=classic;html=1;rounded=0;entryX=-0.008;entryY=0.094;entryDx=0;entryDy=0;entryPerimeter=0;exitX=1.011;exitY=0.045;exitDx=0;exitDy=0;exitPerimeter=0;fillColor=#f8cecc;strokeColor=#b85450;" edge="1" parent="1">
          <mxGeometry width="50" height="50" relative="1" as="geometry">
            <mxPoint x="711" y="340" as="sourcePoint" />
            <mxPoint x="810" y="340" as="targetPoint" />
          </mxGeometry>
        </mxCell>
        <mxCell id="r9BbCS2eWBdrAhoELMwX-62" value="" style="endArrow=classic;html=1;rounded=0;entryX=-0.008;entryY=0.094;entryDx=0;entryDy=0;entryPerimeter=0;strokeColor=light-dark(#000000,#00CC00);" edge="1" parent="1">
          <mxGeometry width="50" height="50" relative="1" as="geometry">
            <mxPoint x="510" y="550" as="sourcePoint" />
            <mxPoint x="620" y="550" as="targetPoint" />
          </mxGeometry>
        </mxCell>
        <mxCell id="r9BbCS2eWBdrAhoELMwX-63" value="" style="endArrow=classic;html=1;rounded=0;entryX=-0.008;entryY=0.094;entryDx=0;entryDy=0;entryPerimeter=0;exitX=0.936;exitY=0.409;exitDx=0;exitDy=0;exitPerimeter=0;" edge="1" parent="1" source="eOo77v9gysO4AsqZZA_v-11">
          <mxGeometry width="50" height="50" relative="1" as="geometry">
            <mxPoint x="740" y="439" as="sourcePoint" />
            <mxPoint x="810" y="439.43000000000006" as="targetPoint" />
          </mxGeometry>
        </mxCell>
        <mxCell id="r9BbCS2eWBdrAhoELMwX-64" value="" style="endArrow=classic;html=1;rounded=0;entryX=-0.008;entryY=0.094;entryDx=0;entryDy=0;entryPerimeter=0;" edge="1" parent="1">
          <mxGeometry width="50" height="50" relative="1" as="geometry">
            <mxPoint x="750" y="549" as="sourcePoint" />
            <mxPoint x="809" y="549" as="targetPoint" />
          </mxGeometry>
        </mxCell>
        <mxCell id="r9BbCS2eWBdrAhoELMwX-65" value="" style="endArrow=classic;html=1;rounded=0;entryX=-0.008;entryY=0.094;entryDx=0;entryDy=0;entryPerimeter=0;" edge="1" parent="1">
          <mxGeometry width="50" height="50" relative="1" as="geometry">
            <mxPoint x="750" y="589.58" as="sourcePoint" />
            <mxPoint x="809" y="589.58" as="targetPoint" />
          </mxGeometry>
        </mxCell>
        <mxCell id="r9BbCS2eWBdrAhoELMwX-66" style="edgeStyle=orthogonalEdgeStyle;rounded=0;orthogonalLoop=1;jettySize=auto;html=1;entryX=0.008;entryY=0.839;entryDx=0;entryDy=0;entryPerimeter=0;" edge="1" parent="1" source="r9BbCS2eWBdrAhoELMwX-7" target="r9BbCS2eWBdrAhoELMwX-10">
          <mxGeometry relative="1" as="geometry" />
        </mxCell>
        <mxCell id="r9BbCS2eWBdrAhoELMwX-67" style="edgeStyle=orthogonalEdgeStyle;rounded=0;orthogonalLoop=1;jettySize=auto;html=1;entryX=-0.017;entryY=0.18;entryDx=0;entryDy=0;entryPerimeter=0;" edge="1" parent="1" source="r9BbCS2eWBdrAhoELMwX-8" target="r9BbCS2eWBdrAhoELMwX-10">
          <mxGeometry relative="1" as="geometry" />
        </mxCell>
        <mxCell id="r9BbCS2eWBdrAhoELMwX-68" value="" style="endArrow=classic;html=1;rounded=0;" edge="1" parent="1">
          <mxGeometry width="50" height="50" relative="1" as="geometry">
            <mxPoint x="840" y="589" as="sourcePoint" />
            <mxPoint x="1236" y="589" as="targetPoint" />
          </mxGeometry>
        </mxCell>
        <mxCell id="r9BbCS2eWBdrAhoELMwX-69" value="" style="edgeStyle=segmentEdgeStyle;endArrow=classic;html=1;curved=0;rounded=0;endSize=8;startSize=8;sourcePerimeterSpacing=0;targetPerimeterSpacing=0;entryX=0.705;entryY=0.99;entryDx=0;entryDy=0;entryPerimeter=0;" edge="1" parent="1" target="r9BbCS2eWBdrAhoELMwX-7">
          <mxGeometry width="100" relative="1" as="geometry">
            <mxPoint x="910" y="590" as="sourcePoint" />
            <mxPoint x="940" y="470" as="targetPoint" />
            <Array as="points">
              <mxPoint x="910" y="590" />
              <mxPoint x="910" y="470" />
            </Array>
          </mxGeometry>
        </mxCell>
        <mxCell id="r9BbCS2eWBdrAhoELMwX-70" value="" style="endArrow=classic;html=1;rounded=0;entryX=0.309;entryY=1.023;entryDx=0;entryDy=0;entryPerimeter=0;exitX=1.016;exitY=0.553;exitDx=0;exitDy=0;exitPerimeter=0;" edge="1" parent="1">
          <mxGeometry width="50" height="50" relative="1" as="geometry">
            <mxPoint x="840" y="442.00000000000006" as="sourcePoint" />
            <mxPoint x="922.1200000000001" y="442.3100000000001" as="targetPoint" />
          </mxGeometry>
        </mxCell>
        <mxCell id="r9BbCS2eWBdrAhoELMwX-71" value="" style="endArrow=classic;html=1;rounded=0;entryX=-0.093;entryY=0.189;entryDx=0;entryDy=0;entryPerimeter=0;exitX=1.011;exitY=0.045;exitDx=0;exitDy=0;exitPerimeter=0;fillColor=#f8cecc;strokeColor=#b85450;" edge="1" parent="1" target="r9BbCS2eWBdrAhoELMwX-36">
          <mxGeometry width="50" height="50" relative="1" as="geometry">
            <mxPoint x="840" y="178.8" as="sourcePoint" />
            <mxPoint x="939" y="178.8" as="targetPoint" />
          </mxGeometry>
        </mxCell>
        <mxCell id="r9BbCS2eWBdrAhoELMwX-72" value="" style="endArrow=classic;html=1;rounded=0;entryX=-0.111;entryY=0.095;entryDx=0;entryDy=0;entryPerimeter=0;exitX=1.011;exitY=0.045;exitDx=0;exitDy=0;exitPerimeter=0;fillColor=#f8cecc;strokeColor=#b85450;" edge="1" parent="1">
          <mxGeometry width="50" height="50" relative="1" as="geometry">
            <mxPoint x="840" y="198.35000000000002" as="sourcePoint" />
            <mxPoint x="1237" y="197.55" as="targetPoint" />
          </mxGeometry>
        </mxCell>
        <mxCell id="r9BbCS2eWBdrAhoELMwX-73" value="" style="endArrow=classic;html=1;rounded=0;entryX=-0.111;entryY=0.095;entryDx=0;entryDy=0;entryPerimeter=0;exitX=1.011;exitY=0.045;exitDx=0;exitDy=0;exitPerimeter=0;fillColor=#f8cecc;strokeColor=#b85450;" edge="1" parent="1">
          <mxGeometry width="50" height="50" relative="1" as="geometry">
            <mxPoint x="840" y="220.8" as="sourcePoint" />
            <mxPoint x="1237" y="220" as="targetPoint" />
          </mxGeometry>
        </mxCell>
        <mxCell id="r9BbCS2eWBdrAhoELMwX-74" value="" style="endArrow=classic;html=1;rounded=0;entryX=-0.111;entryY=0.095;entryDx=0;entryDy=0;entryPerimeter=0;exitX=1.011;exitY=0.045;exitDx=0;exitDy=0;exitPerimeter=0;fillColor=#f8cecc;strokeColor=#b85450;" edge="1" parent="1">
          <mxGeometry width="50" height="50" relative="1" as="geometry">
            <mxPoint x="840" y="240.8" as="sourcePoint" />
            <mxPoint x="1237" y="240" as="targetPoint" />
          </mxGeometry>
        </mxCell>
        <mxCell id="r9BbCS2eWBdrAhoELMwX-75" value="" style="endArrow=classic;html=1;rounded=0;exitX=1.011;exitY=0.045;exitDx=0;exitDy=0;exitPerimeter=0;fillColor=#f8cecc;strokeColor=#b85450;" edge="1" parent="1">
          <mxGeometry width="50" height="50" relative="1" as="geometry">
            <mxPoint x="1270" y="177.93" as="sourcePoint" />
            <mxPoint x="1487" y="178" as="targetPoint" />
          </mxGeometry>
        </mxCell>
        <mxCell id="r9BbCS2eWBdrAhoELMwX-76" value="" style="endArrow=classic;html=1;rounded=0;entryX=-0.111;entryY=0.095;entryDx=0;entryDy=0;entryPerimeter=0;exitX=1.011;exitY=0.045;exitDx=0;exitDy=0;exitPerimeter=0;fillColor=#f8cecc;strokeColor=#b85450;" edge="1" parent="1">
          <mxGeometry width="50" height="50" relative="1" as="geometry">
            <mxPoint x="1270" y="197.55" as="sourcePoint" />
            <mxPoint x="1487" y="197.62" as="targetPoint" />
          </mxGeometry>
        </mxCell>
        <mxCell id="r9BbCS2eWBdrAhoELMwX-77" style="edgeStyle=orthogonalEdgeStyle;rounded=0;orthogonalLoop=1;jettySize=auto;html=1;entryX=-0.086;entryY=0.348;entryDx=0;entryDy=0;entryPerimeter=0;exitX=0.509;exitY=0.006;exitDx=0;exitDy=0;exitPerimeter=0;" edge="1" parent="1" source="r9BbCS2eWBdrAhoELMwX-9">
          <mxGeometry relative="1" as="geometry">
            <mxPoint x="1180" y="342" as="sourcePoint" />
            <mxPoint x="1239.9999999999998" y="341.98999999999995" as="targetPoint" />
            <Array as="points" />
          </mxGeometry>
        </mxCell>
        <mxCell id="r9BbCS2eWBdrAhoELMwX-79" value="" style="edgeStyle=segmentEdgeStyle;endArrow=classic;html=1;curved=0;rounded=0;endSize=8;startSize=8;sourcePerimeterSpacing=0;targetPerimeterSpacing=0;entryX=0.168;entryY=0.958;entryDx=0;entryDy=0;entryPerimeter=0;" edge="1" parent="1" target="r9BbCS2eWBdrAhoELMwX-9">
          <mxGeometry width="100" relative="1" as="geometry">
            <mxPoint x="836" y="149" as="sourcePoint" />
            <mxPoint x="1090" y="314.78" as="targetPoint" />
            <Array as="points">
              <mxPoint x="1070" y="149" />
              <mxPoint x="1070" y="315" />
            </Array>
          </mxGeometry>
        </mxCell>
        <mxCell id="r9BbCS2eWBdrAhoELMwX-80" value="" style="edgeStyle=segmentEdgeStyle;endArrow=classic;html=1;curved=0;rounded=0;endSize=8;startSize=8;sourcePerimeterSpacing=0;targetPerimeterSpacing=0;entryX=0;entryY=0.5;entryDx=0;entryDy=0;fillColor=#f8cecc;strokeColor=#B85450;" edge="1" parent="1" source="r9BbCS2eWBdrAhoELMwX-35" target="r9BbCS2eWBdrAhoELMwX-9">
          <mxGeometry width="100" relative="1" as="geometry">
            <mxPoint x="842" y="254" as="sourcePoint" />
            <mxPoint x="1140" y="270" as="targetPoint" />
            <Array as="points">
              <mxPoint x="1174" y="254" />
            </Array>
          </mxGeometry>
        </mxCell>
        <mxCell id="r9BbCS2eWBdrAhoELMwX-81" value="" style="edgeStyle=segmentEdgeStyle;endArrow=classic;html=1;curved=0;rounded=0;endSize=8;startSize=8;sourcePerimeterSpacing=0;targetPerimeterSpacing=0;entryX=0.224;entryY=0.073;entryDx=0;entryDy=0;entryPerimeter=0;fillColor=#f8cecc;strokeColor=#b85450;exitX=0.999;exitY=0.042;exitDx=0;exitDy=0;exitPerimeter=0;" edge="1" parent="1" target="r9BbCS2eWBdrAhoELMwX-10" source="r9BbCS2eWBdrAhoELMwX-35">
          <mxGeometry width="100" relative="1" as="geometry">
            <mxPoint x="740" y="70" as="sourcePoint" />
            <mxPoint x="1088" y="327.5" as="targetPoint" />
            <Array as="points">
              <mxPoint x="1028" y="70" />
            </Array>
          </mxGeometry>
        </mxCell>
        <mxCell id="r9BbCS2eWBdrAhoELMwX-82" value="" style="edgeStyle=segmentEdgeStyle;endArrow=classic;html=1;curved=0;rounded=0;endSize=8;startSize=8;sourcePerimeterSpacing=0;targetPerimeterSpacing=0;entryX=0;entryY=0.75;entryDx=0;entryDy=0;fillColor=#f8cecc;strokeColor=#b85450;" edge="1" parent="1" target="r9BbCS2eWBdrAhoELMwX-11">
          <mxGeometry width="100" relative="1" as="geometry">
            <mxPoint x="840" y="340" as="sourcePoint" />
            <mxPoint x="940" y="380" as="targetPoint" />
            <Array as="points">
              <mxPoint x="860" y="340" />
              <mxPoint x="860" y="670" />
            </Array>
          </mxGeometry>
        </mxCell>
        <mxCell id="r9BbCS2eWBdrAhoELMwX-83" value="" style="edgeStyle=segmentEdgeStyle;endArrow=classic;html=1;curved=0;rounded=0;endSize=8;startSize=8;sourcePerimeterSpacing=0;targetPerimeterSpacing=0;entryX=0;entryY=0.75;entryDx=0;entryDy=0;fillColor=#f8cecc;strokeColor=#b85450;" edge="1" parent="1">
          <mxGeometry width="100" relative="1" as="geometry">
            <mxPoint x="840" y="320" as="sourcePoint" />
            <mxPoint x="950" y="650" as="targetPoint" />
            <Array as="points">
              <mxPoint x="870" y="320" />
              <mxPoint x="870" y="650" />
            </Array>
          </mxGeometry>
        </mxCell>
        <mxCell id="r9BbCS2eWBdrAhoELMwX-84" value="" style="edgeStyle=segmentEdgeStyle;endArrow=classic;html=1;curved=0;rounded=0;endSize=8;startSize=8;sourcePerimeterSpacing=0;targetPerimeterSpacing=0;entryX=0.25;entryY=1;entryDx=0;entryDy=0;" edge="1" parent="1" target="r9BbCS2eWBdrAhoELMwX-8">
          <mxGeometry width="100" relative="1" as="geometry">
            <mxPoint x="840" y="370" as="sourcePoint" />
            <mxPoint x="940" y="416.23" as="targetPoint" />
            <Array as="points">
              <mxPoint x="840" y="370" />
              <mxPoint x="880" y="370" />
              <mxPoint x="880" y="329" />
            </Array>
          </mxGeometry>
        </mxCell>
        <mxCell id="r9BbCS2eWBdrAhoELMwX-86" value="" style="edgeStyle=segmentEdgeStyle;endArrow=classic;html=1;curved=0;rounded=0;endSize=8;startSize=8;sourcePerimeterSpacing=0;targetPerimeterSpacing=0;entryX=0.697;entryY=1.001;entryDx=0;entryDy=0;exitX=1.004;exitY=0.671;exitDx=0;exitDy=0;exitPerimeter=0;entryPerimeter=0;" edge="1" parent="1" source="r9BbCS2eWBdrAhoELMwX-35" target="r9BbCS2eWBdrAhoELMwX-8">
          <mxGeometry width="100" relative="1" as="geometry">
            <mxPoint x="839" y="549" as="sourcePoint" />
            <mxPoint x="916" y="360" as="targetPoint" />
            <Array as="points">
              <mxPoint x="840" y="549" />
              <mxPoint x="850" y="549" />
              <mxPoint x="850" y="360" />
            </Array>
          </mxGeometry>
        </mxCell>
        <mxCell id="r9BbCS2eWBdrAhoELMwX-87" value="" style="edgeStyle=segmentEdgeStyle;endArrow=classic;html=1;curved=0;rounded=0;endSize=8;startSize=8;sourcePerimeterSpacing=0;targetPerimeterSpacing=0;entryX=0;entryY=0.25;entryDx=0;entryDy=0;fillColor=#f8cecc;strokeColor=#b85450;exitX=0.991;exitY=0.334;exitDx=0;exitDy=0;exitPerimeter=0;" edge="1" parent="1" target="r9BbCS2eWBdrAhoELMwX-7" source="r9BbCS2eWBdrAhoELMwX-35">
          <mxGeometry width="100" relative="1" as="geometry">
            <mxPoint x="840" y="287.75" as="sourcePoint" />
            <mxPoint x="1028" y="339.75" as="targetPoint" />
            <Array as="points">
              <mxPoint x="958" y="281" />
            </Array>
          </mxGeometry>
        </mxCell>
        <mxCell id="r9BbCS2eWBdrAhoELMwX-88" value="" style="edgeStyle=segmentEdgeStyle;endArrow=classic;html=1;curved=0;rounded=0;endSize=8;startSize=8;sourcePerimeterSpacing=0;targetPerimeterSpacing=0;entryX=0;entryY=0.5;entryDx=0;entryDy=0;fillColor=#f8cecc;strokeColor=#b85450;" edge="1" parent="1" target="r9BbCS2eWBdrAhoELMwX-8">
          <mxGeometry width="100" relative="1" as="geometry">
            <mxPoint x="840" y="300" as="sourcePoint" />
            <mxPoint x="960" y="434.25" as="targetPoint" />
            <Array as="points">
              <mxPoint x="920" y="300" />
            </Array>
          </mxGeometry>
        </mxCell>
        <mxCell id="r9BbCS2eWBdrAhoELMwX-89" value="" style="edgeStyle=segmentEdgeStyle;endArrow=classic;html=1;curved=0;rounded=0;endSize=8;startSize=8;sourcePerimeterSpacing=0;targetPerimeterSpacing=0;exitX=1;exitY=0.764;exitDx=0;exitDy=0;exitPerimeter=0;entryX=-0.007;entryY=0.687;entryDx=0;entryDy=0;entryPerimeter=0;" edge="1" parent="1" target="r9BbCS2eWBdrAhoELMwX-12">
          <mxGeometry width="100" relative="1" as="geometry">
            <mxPoint x="1269.76" y="590.07" as="sourcePoint" />
            <mxPoint x="1330" y="430" as="targetPoint" />
            <Array as="points">
              <mxPoint x="1310" y="590" />
              <mxPoint x="1310" y="400" />
            </Array>
          </mxGeometry>
        </mxCell>
        <mxCell id="r9BbCS2eWBdrAhoELMwX-90" value="" style="edgeStyle=none;orthogonalLoop=1;jettySize=auto;html=1;rounded=0;entryX=0.106;entryY=0.662;entryDx=0;entryDy=0;entryPerimeter=0;exitX=1.027;exitY=0.415;exitDx=0;exitDy=0;exitPerimeter=0;" edge="1" parent="1" source="r9BbCS2eWBdrAhoELMwX-36" target="p3kReN-Q5fiopgWanENs-20">
          <mxGeometry width="100" relative="1" as="geometry">
            <mxPoint x="1230" y="320" as="sourcePoint" />
            <mxPoint x="1330" y="320" as="targetPoint" />
            <Array as="points" />
          </mxGeometry>
        </mxCell>
        <mxCell id="r9BbCS2eWBdrAhoELMwX-93" value="" style="edgeStyle=segmentEdgeStyle;endArrow=classic;html=1;curved=0;rounded=0;endSize=8;startSize=8;sourcePerimeterSpacing=0;targetPerimeterSpacing=0;fillColor=#f8cecc;strokeColor=#b85450;exitX=1.016;exitY=0.163;exitDx=0;exitDy=0;exitPerimeter=0;entryX=0.75;entryY=0;entryDx=0;entryDy=0;" edge="1" parent="1" source="r9BbCS2eWBdrAhoELMwX-36" target="r9BbCS2eWBdrAhoELMwX-12">
          <mxGeometry width="100" relative="1" as="geometry">
            <mxPoint x="1280" y="220" as="sourcePoint" />
            <mxPoint x="1420" y="288" as="targetPoint" />
            <Array as="points">
              <mxPoint x="1420" y="224" />
            </Array>
          </mxGeometry>
        </mxCell>
        <mxCell id="r9BbCS2eWBdrAhoELMwX-94" value="" style="edgeStyle=segmentEdgeStyle;endArrow=classic;html=1;curved=0;rounded=0;endSize=8;startSize=8;sourcePerimeterSpacing=0;targetPerimeterSpacing=0;fillColor=#f8cecc;strokeColor=#b85450;" edge="1" parent="1">
          <mxGeometry width="100" relative="1" as="geometry">
            <mxPoint x="1270" y="240" as="sourcePoint" />
            <mxPoint x="1360" y="290" as="targetPoint" />
            <Array as="points">
              <mxPoint x="1360" y="240" />
            </Array>
          </mxGeometry>
        </mxCell>
        <mxCell id="r9BbCS2eWBdrAhoELMwX-95" value="" style="edgeStyle=segmentEdgeStyle;endArrow=classic;html=1;curved=0;rounded=0;endSize=8;startSize=8;sourcePerimeterSpacing=0;targetPerimeterSpacing=0;" edge="1" parent="1">
          <mxGeometry width="100" relative="1" as="geometry">
            <mxPoint x="1310" y="340" as="sourcePoint" />
            <mxPoint x="1490" y="250" as="targetPoint" />
            <Array as="points">
              <mxPoint x="1310" y="340" />
              <mxPoint x="1310" y="250" />
              <mxPoint x="1488" y="250" />
            </Array>
          </mxGeometry>
        </mxCell>
        <mxCell id="r9BbCS2eWBdrAhoELMwX-96" value="" style="edgeStyle=segmentEdgeStyle;endArrow=classic;html=1;curved=0;rounded=0;endSize=8;startSize=8;sourcePerimeterSpacing=0;targetPerimeterSpacing=0;fillColor=#f8cecc;strokeColor=#b85450;entryX=0;entryY=0.5;entryDx=0;entryDy=0;" edge="1" parent="1" target="r9BbCS2eWBdrAhoELMwX-13">
          <mxGeometry width="100" relative="1" as="geometry">
            <mxPoint x="1520" y="197" as="sourcePoint" />
            <mxPoint x="1620" y="247.55" as="targetPoint" />
            <Array as="points">
              <mxPoint x="1647" y="197" />
            </Array>
          </mxGeometry>
        </mxCell>
        <mxCell id="r9BbCS2eWBdrAhoELMwX-97" value="" style="edgeStyle=none;orthogonalLoop=1;jettySize=auto;html=1;rounded=0;entryX=0.151;entryY=1.001;entryDx=0;entryDy=0;entryPerimeter=0;exitX=0.96;exitY=0.289;exitDx=0;exitDy=0;exitPerimeter=0;" edge="1" parent="1" source="r9BbCS2eWBdrAhoELMwX-37" target="r9BbCS2eWBdrAhoELMwX-13">
          <mxGeometry width="100" relative="1" as="geometry">
            <mxPoint x="1540" y="250" as="sourcePoint" />
            <mxPoint x="1589" y="250" as="targetPoint" />
            <Array as="points" />
          </mxGeometry>
        </mxCell>
        <mxCell id="r9BbCS2eWBdrAhoELMwX-98" value="" style="edgeStyle=segmentEdgeStyle;endArrow=classic;html=1;curved=0;rounded=0;endSize=8;startSize=8;sourcePerimeterSpacing=0;targetPerimeterSpacing=0;entryX=-0.041;entryY=0.473;entryDx=0;entryDy=0;entryPerimeter=0;" edge="1" parent="1" target="eOo77v9gysO4AsqZZA_v-7">
          <mxGeometry width="100" relative="1" as="geometry">
            <mxPoint x="1520" y="411.25" as="sourcePoint" />
            <mxPoint x="1550" y="411.25" as="targetPoint" />
            <Array as="points" />
          </mxGeometry>
        </mxCell>
        <mxCell id="r9BbCS2eWBdrAhoELMwX-99" value="" style="endArrow=classic;html=1;rounded=0;entryX=-0.008;entryY=0.094;entryDx=0;entryDy=0;entryPerimeter=0;strokeColor=light-dark(#000000,#00CC00);" edge="1" parent="1">
          <mxGeometry width="50" height="50" relative="1" as="geometry">
            <mxPoint x="520" y="740.4200000000001" as="sourcePoint" />
            <mxPoint x="810" y="740" as="targetPoint" />
          </mxGeometry>
        </mxCell>
        <mxCell id="r9BbCS2eWBdrAhoELMwX-100" value="" style="endArrow=classic;html=1;rounded=0;entryX=0;entryY=0.969;entryDx=0;entryDy=0;entryPerimeter=0;exitX=1.016;exitY=0.971;exitDx=0;exitDy=0;exitPerimeter=0;strokeColor=light-dark(#000000,#00CC00);" edge="1" parent="1" source="r9BbCS2eWBdrAhoELMwX-35" target="r9BbCS2eWBdrAhoELMwX-36">
          <mxGeometry width="50" height="50" relative="1" as="geometry">
            <mxPoint x="860" y="740" as="sourcePoint" />
            <mxPoint x="1130" y="740" as="targetPoint" />
          </mxGeometry>
        </mxCell>
        <mxCell id="r9BbCS2eWBdrAhoELMwX-101" value="" style="endArrow=classic;html=1;rounded=0;entryX=0.103;entryY=0.969;entryDx=0;entryDy=0;entryPerimeter=0;exitX=1.018;exitY=0.971;exitDx=0;exitDy=0;exitPerimeter=0;strokeColor=light-dark(#000000,#00CC00);" edge="1" parent="1" source="r9BbCS2eWBdrAhoELMwX-36" target="r9BbCS2eWBdrAhoELMwX-37">
          <mxGeometry width="50" height="50" relative="1" as="geometry">
            <mxPoint x="1080" y="741" as="sourcePoint" />
            <mxPoint x="1480" y="740" as="targetPoint" />
          </mxGeometry>
        </mxCell>
        <mxCell id="r9BbCS2eWBdrAhoELMwX-103" style="edgeStyle=orthogonalEdgeStyle;rounded=0;orthogonalLoop=1;jettySize=auto;html=1;exitX=0.5;exitY=0;exitDx=0;exitDy=0;entryX=0.011;entryY=0.918;entryDx=0;entryDy=0;entryPerimeter=0;" edge="1" parent="1" source="r9BbCS2eWBdrAhoELMwX-13" target="r9BbCS2eWBdrAhoELMwX-6">
          <mxGeometry relative="1" as="geometry">
            <Array as="points">
              <mxPoint x="1690" y="277" />
              <mxPoint x="1690" y="840" />
              <mxPoint x="580" y="840" />
              <mxPoint x="580" y="654" />
              <mxPoint x="620" y="654" />
              <mxPoint x="620" y="655" />
            </Array>
          </mxGeometry>
        </mxCell>
        <mxCell id="r9BbCS2eWBdrAhoELMwX-104" style="edgeStyle=orthogonalEdgeStyle;rounded=0;orthogonalLoop=1;jettySize=auto;html=1;fillColor=#f8cecc;strokeColor=#b85450;" edge="1" parent="1">
          <mxGeometry relative="1" as="geometry">
            <mxPoint x="1520" y="180" as="sourcePoint" />
            <mxPoint x="620" y="642" as="targetPoint" />
            <Array as="points">
              <mxPoint x="1720" y="180" />
              <mxPoint x="1720" y="860" />
              <mxPoint x="560" y="860" />
              <mxPoint x="560" y="642" />
            </Array>
          </mxGeometry>
        </mxCell>
        <mxCell id="r9BbCS2eWBdrAhoELMwX-105" style="edgeStyle=orthogonalEdgeStyle;rounded=0;orthogonalLoop=1;jettySize=auto;html=1;exitX=0.987;exitY=0.963;exitDx=0;exitDy=0;entryX=-0.01;entryY=0.902;entryDx=0;entryDy=0;entryPerimeter=0;exitPerimeter=0;strokeColor=light-dark(#000000,#00CC00);" edge="1" parent="1" source="r9BbCS2eWBdrAhoELMwX-37">
          <mxGeometry relative="1" as="geometry">
            <mxPoint x="1634" y="240" as="sourcePoint" />
            <mxPoint x="619" y="618" as="targetPoint" />
            <Array as="points">
              <mxPoint x="1590" y="736" />
              <mxPoint x="1590" y="890" />
              <mxPoint x="540" y="890" />
              <mxPoint x="540" y="618" />
            </Array>
          </mxGeometry>
        </mxCell>
        <mxCell id="r9BbCS2eWBdrAhoELMwX-106" value="PC[31:0]" style="text;html=1;align=center;verticalAlign=middle;resizable=0;points=[];autosize=1;strokeColor=none;fillColor=none;" vertex="1" parent="1">
          <mxGeometry x="380" y="340" width="70" height="30" as="geometry" />
        </mxCell>
        <mxCell id="r9BbCS2eWBdrAhoELMwX-108" value="INSTRUCTION[31:0]" style="text;html=1;align=center;verticalAlign=middle;resizable=0;points=[];autosize=1;strokeColor=none;fillColor=none;" vertex="1" parent="1">
          <mxGeometry x="330" y="560" width="140" height="30" as="geometry" />
        </mxCell>
        <mxCell id="p3kReN-Q5fiopgWanENs-1" value="PC_PLUS_4[31:0]" style="text;html=1;align=center;verticalAlign=middle;resizable=0;points=[];autosize=1;strokeColor=none;fillColor=none;" vertex="1" parent="1">
          <mxGeometry x="690" y="118.8" width="120" height="30" as="geometry" />
        </mxCell>
        <mxCell id="p3kReN-Q5fiopgWanENs-5" value="&lt;font style=&quot;font-size: 10px;&quot;&gt;[7:0]Opcode&lt;/font&gt;" style="text;html=1;align=center;verticalAlign=middle;resizable=0;points=[];autosize=1;strokeColor=none;fillColor=none;" vertex="1" parent="1">
          <mxGeometry x="510" y="162.55" width="80" height="30" as="geometry" />
        </mxCell>
        <mxCell id="p3kReN-Q5fiopgWanENs-6" value="&lt;font style=&quot;font-size: 10px;&quot;&gt;[12:14]func3&lt;/font&gt;" style="text;html=1;align=center;verticalAlign=middle;resizable=0;points=[];autosize=1;strokeColor=none;fillColor=none;" vertex="1" parent="1">
          <mxGeometry x="510" y="194.05" width="80" height="30" as="geometry" />
        </mxCell>
        <mxCell id="p3kReN-Q5fiopgWanENs-7" value="&lt;font style=&quot;font-size: 10px;&quot;&gt;[31:25]func7&lt;/font&gt;" style="text;html=1;align=center;verticalAlign=middle;resizable=0;points=[];autosize=1;strokeColor=none;fillColor=none;" vertex="1" parent="1">
          <mxGeometry x="510" y="224.05" width="80" height="30" as="geometry" />
        </mxCell>
        <mxCell id="p3kReN-Q5fiopgWanENs-8" value="&lt;font style=&quot;font-size: 10px;&quot;&gt;ADDR1&lt;/font&gt;" style="text;html=1;align=center;verticalAlign=middle;resizable=0;points=[];autosize=1;strokeColor=none;fillColor=none;" vertex="1" parent="1">
          <mxGeometry x="615" y="535" width="60" height="30" as="geometry" />
        </mxCell>
        <mxCell id="p3kReN-Q5fiopgWanENs-9" value="&lt;font style=&quot;font-size: 10px;&quot;&gt;ADDR2&lt;/font&gt;" style="text;html=1;align=center;verticalAlign=middle;resizable=0;points=[];autosize=1;strokeColor=none;fillColor=none;" vertex="1" parent="1">
          <mxGeometry x="615" y="575" width="60" height="30" as="geometry" />
        </mxCell>
        <mxCell id="p3kReN-Q5fiopgWanENs-12" value="&lt;font style=&quot;font-size: 10px;&quot;&gt;WRITE_ADDR&lt;/font&gt;" style="text;html=1;align=center;verticalAlign=middle;resizable=0;points=[];autosize=1;strokeColor=none;fillColor=none;" vertex="1" parent="1">
          <mxGeometry x="615" y="605" width="90" height="30" as="geometry" />
        </mxCell>
        <mxCell id="p3kReN-Q5fiopgWanENs-13" value="&lt;font style=&quot;font-size: 10px;&quot;&gt;WRITE_EN&lt;/font&gt;" style="text;html=1;align=center;verticalAlign=middle;resizable=0;points=[];autosize=1;strokeColor=none;fillColor=none;" vertex="1" parent="1">
          <mxGeometry x="608" y="620" width="80" height="30" as="geometry" />
        </mxCell>
        <mxCell id="p3kReN-Q5fiopgWanENs-14" value="&lt;font style=&quot;font-size: 10px;&quot;&gt;WRITE_DATA&lt;/font&gt;" style="text;html=1;align=center;verticalAlign=middle;resizable=0;points=[];autosize=1;strokeColor=none;fillColor=none;" vertex="1" parent="1">
          <mxGeometry x="610" y="640" width="90" height="30" as="geometry" />
        </mxCell>
        <mxCell id="p3kReN-Q5fiopgWanENs-15" value="&lt;font style=&quot;font-size: 10px;&quot;&gt;OUT1&lt;/font&gt;" style="text;html=1;align=center;verticalAlign=middle;resizable=0;points=[];autosize=1;strokeColor=none;fillColor=none;" vertex="1" parent="1">
          <mxGeometry x="705" y="535" width="50" height="30" as="geometry" />
        </mxCell>
        <mxCell id="p3kReN-Q5fiopgWanENs-16" value="&lt;font style=&quot;font-size: 10px;&quot;&gt;OUT2&lt;/font&gt;" style="text;html=1;align=center;verticalAlign=middle;resizable=0;points=[];autosize=1;strokeColor=none;fillColor=none;" vertex="1" parent="1">
          <mxGeometry x="705" y="580" width="50" height="30" as="geometry" />
        </mxCell>
        <mxCell id="p3kReN-Q5fiopgWanENs-18" value="" style="edgeStyle=segmentEdgeStyle;endArrow=classic;html=1;curved=0;rounded=0;endSize=8;startSize=8;sourcePerimeterSpacing=0;targetPerimeterSpacing=0;entryX=0.75;entryY=0;entryDx=0;entryDy=0;exitX=0.704;exitY=0.697;exitDx=0;exitDy=0;exitPerimeter=0;" edge="1" parent="1" source="r9BbCS2eWBdrAhoELMwX-10" target="r9BbCS2eWBdrAhoELMwX-11">
          <mxGeometry width="100" relative="1" as="geometry">
            <mxPoint x="1070" y="430" as="sourcePoint" />
            <mxPoint x="1010" y="609.97" as="targetPoint" />
            <Array as="points">
              <mxPoint x="1080" y="430" />
              <mxPoint x="1080" y="610" />
              <mxPoint x="1010" y="610" />
            </Array>
          </mxGeometry>
        </mxCell>
        <mxCell id="p3kReN-Q5fiopgWanENs-19" value="&lt;font style=&quot;font-size: 10px;&quot;&gt;Zero&lt;/font&gt;" style="text;html=1;align=center;verticalAlign=middle;resizable=0;points=[];autosize=1;strokeColor=none;fillColor=none;" vertex="1" parent="1">
          <mxGeometry x="1030" y="410" width="40" height="30" as="geometry" />
        </mxCell>
        <mxCell id="p3kReN-Q5fiopgWanENs-20" value="&lt;font style=&quot;font-size: 10px;&quot;&gt;ADDR&lt;/font&gt;" style="text;html=1;align=center;verticalAlign=middle;resizable=0;points=[];autosize=1;strokeColor=none;fillColor=none;" vertex="1" parent="1">
          <mxGeometry x="1325" y="320" width="50" height="30" as="geometry" />
        </mxCell>
        <mxCell id="p3kReN-Q5fiopgWanENs-21" value="&lt;font style=&quot;font-size: 10px;&quot;&gt;WRITE_DATA&lt;/font&gt;" style="text;html=1;align=center;verticalAlign=middle;resizable=0;points=[];autosize=1;strokeColor=none;fillColor=none;" vertex="1" parent="1">
          <mxGeometry x="1320" y="381.25" width="90" height="30" as="geometry" />
        </mxCell>
        <mxCell id="p3kReN-Q5fiopgWanENs-22" value="&lt;font style=&quot;font-size: 10px;&quot;&gt;DATA_OUT&lt;/font&gt;" style="text;html=1;align=center;verticalAlign=middle;resizable=0;points=[];autosize=1;strokeColor=none;fillColor=none;" vertex="1" parent="1">
          <mxGeometry x="1375" y="391.25" width="80" height="30" as="geometry" />
        </mxCell>
        <mxCell id="p3kReN-Q5fiopgWanENs-23" value="&lt;font style=&quot;font-size: 9px;&quot;&gt;MEM_READ&lt;/font&gt;" style="text;html=1;align=center;verticalAlign=middle;resizable=0;points=[];autosize=1;strokeColor=none;fillColor=none;" vertex="1" parent="1">
          <mxGeometry x="1325" y="281.25" width="70" height="30" as="geometry" />
        </mxCell>
        <mxCell id="p3kReN-Q5fiopgWanENs-24" value="&lt;font style=&quot;font-size: 9px;&quot;&gt;MEM_WRITE&lt;/font&gt;" style="text;html=1;align=center;verticalAlign=middle;resizable=0;points=[];autosize=1;strokeColor=none;fillColor=none;" vertex="1" parent="1">
          <mxGeometry x="1380" y="281.25" width="80" height="30" as="geometry" />
        </mxCell>
        <mxCell id="p3kReN-Q5fiopgWanENs-25" value="&lt;font style=&quot;font-size: 9px;&quot;&gt;WRITE_EN&lt;/font&gt;" style="text;html=1;align=center;verticalAlign=middle;resizable=0;points=[];autosize=1;strokeColor=none;fillColor=none;" vertex="1" parent="1">
          <mxGeometry x="640" y="162.55" width="70" height="30" as="geometry" />
        </mxCell>
        <mxCell id="p3kReN-Q5fiopgWanENs-26" value="&lt;font style=&quot;font-size: 9px;&quot;&gt;DATA_MEM_SELECT&lt;/font&gt;" style="text;html=1;align=center;verticalAlign=middle;resizable=0;points=[];autosize=1;strokeColor=none;fillColor=none;" vertex="1" parent="1">
          <mxGeometry x="605" y="178.8" width="110" height="30" as="geometry" />
        </mxCell>
        <mxCell id="p3kReN-Q5fiopgWanENs-27" value="&lt;font style=&quot;font-size: 9px;&quot;&gt;MEM_WRITE&lt;/font&gt;" style="text;html=1;align=center;verticalAlign=middle;resizable=0;points=[];autosize=1;strokeColor=none;fillColor=none;" vertex="1" parent="1">
          <mxGeometry x="635" y="205.05" width="80" height="30" as="geometry" />
        </mxCell>
        <mxCell id="p3kReN-Q5fiopgWanENs-28" value="&lt;font style=&quot;font-size: 9px;&quot;&gt;MEM_READ&lt;/font&gt;" style="text;html=1;align=center;verticalAlign=middle;resizable=0;points=[];autosize=1;strokeColor=none;fillColor=none;" vertex="1" parent="1">
          <mxGeometry x="640" y="224.05" width="70" height="30" as="geometry" />
        </mxCell>
        <mxCell id="p3kReN-Q5fiopgWanENs-29" value="&lt;font style=&quot;font-size: 9px;&quot;&gt;JAL_SELECT&lt;/font&gt;" style="text;html=1;align=center;verticalAlign=middle;resizable=0;points=[];autosize=1;strokeColor=none;fillColor=none;" vertex="1" parent="1">
          <mxGeometry x="635" y="240" width="80" height="30" as="geometry" />
        </mxCell>
        <mxCell id="p3kReN-Q5fiopgWanENs-33" value="&lt;font style=&quot;font-size: 9px;&quot;&gt;BRANCH&lt;/font&gt;" style="text;html=1;align=center;verticalAlign=middle;resizable=0;points=[];autosize=1;strokeColor=none;fillColor=none;" vertex="1" parent="1">
          <mxGeometry x="655" y="302.5" width="60" height="30" as="geometry" />
        </mxCell>
        <mxCell id="p3kReN-Q5fiopgWanENs-34" value="&lt;font style=&quot;font-size: 9px;&quot;&gt;JUMP&lt;/font&gt;" style="text;html=1;align=center;verticalAlign=middle;resizable=0;points=[];autosize=1;strokeColor=none;fillColor=none;" vertex="1" parent="1">
          <mxGeometry x="665" y="325" width="50" height="30" as="geometry" />
        </mxCell>
        <mxCell id="p3kReN-Q5fiopgWanENs-37" value="&lt;font style=&quot;font-size: 9px;&quot;&gt;IMM_SELECT&lt;/font&gt;" style="text;html=1;align=center;verticalAlign=middle;resizable=0;points=[];autosize=1;strokeColor=none;fillColor=none;" vertex="1" parent="1">
          <mxGeometry x="635" y="263" width="80" height="30" as="geometry" />
        </mxCell>
        <mxCell id="p3kReN-Q5fiopgWanENs-38" value="&lt;font style=&quot;font-size: 9px;&quot;&gt;PC_SELECT&lt;/font&gt;" style="text;html=1;align=center;verticalAlign=middle;resizable=0;points=[];autosize=1;strokeColor=none;fillColor=none;" vertex="1" parent="1">
          <mxGeometry x="640" y="284.05" width="80" height="30" as="geometry" />
        </mxCell>
        <mxCell id="eOo77v9gysO4AsqZZA_v-1" value="" style="endArrow=classic;html=1;rounded=0;entryX=-0.066;entryY=0.096;entryDx=0;entryDy=0;entryPerimeter=0;strokeColor=light-dark(#000000,#00CC00);" edge="1" parent="1" target="r9BbCS2eWBdrAhoELMwX-35">
          <mxGeometry width="50" height="50" relative="1" as="geometry">
            <mxPoint x="510" y="190" as="sourcePoint" />
            <mxPoint x="550" y="112.55" as="targetPoint" />
            <Array as="points">
              <mxPoint x="510" y="110" />
            </Array>
          </mxGeometry>
        </mxCell>
        <mxCell id="eOo77v9gysO4AsqZZA_v-2" value="&lt;font style=&quot;font-size: 10px;&quot;&gt;[12:14]func3&lt;/font&gt;" style="text;html=1;align=center;verticalAlign=middle;resizable=0;points=[];autosize=1;strokeColor=none;fillColor=none;" vertex="1" parent="1">
          <mxGeometry x="510" y="80.00000000000001" width="80" height="30" as="geometry" />
        </mxCell>
        <mxCell id="eOo77v9gysO4AsqZZA_v-4" value="" style="endArrow=classic;html=1;rounded=0;entryX=-0.075;entryY=0.097;entryDx=0;entryDy=0;entryPerimeter=0;strokeColor=light-dark(#000000,#00CC00);" edge="1" parent="1" target="r9BbCS2eWBdrAhoELMwX-36">
          <mxGeometry width="50" height="50" relative="1" as="geometry">
            <mxPoint x="840" y="110" as="sourcePoint" />
            <mxPoint x="890" y="60" as="targetPoint" />
          </mxGeometry>
        </mxCell>
        <mxCell id="eOo77v9gysO4AsqZZA_v-5" value="" style="endArrow=classic;html=1;rounded=0;strokeColor=light-dark(#000000,#00CC00);" edge="1" parent="1">
          <mxGeometry width="50" height="50" relative="1" as="geometry">
            <mxPoint x="1270" y="110" as="sourcePoint" />
            <mxPoint x="1490" y="110" as="targetPoint" />
          </mxGeometry>
        </mxCell>
        <mxCell id="eOo77v9gysO4AsqZZA_v-6" value="" style="endArrow=classic;html=1;rounded=0;entryX=0.267;entryY=-0.126;entryDx=0;entryDy=0;entryPerimeter=0;strokeColor=light-dark(#000000,#00CC00);" edge="1" parent="1" target="eOo77v9gysO4AsqZZA_v-7">
          <mxGeometry width="50" height="50" relative="1" as="geometry">
            <mxPoint x="1520" y="110" as="sourcePoint" />
            <mxPoint x="1550" y="330" as="targetPoint" />
            <Array as="points">
              <mxPoint x="1550" y="110" />
              <mxPoint x="1550" y="330" />
              <mxPoint x="1579" y="330" />
            </Array>
          </mxGeometry>
        </mxCell>
        <mxCell id="eOo77v9gysO4AsqZZA_v-7" value="Load Processing Unit" style="rounded=0;whiteSpace=wrap;html=1;" vertex="1" parent="1">
          <mxGeometry x="1560" y="386.25" width="70" height="53.75" as="geometry" />
        </mxCell>
        <mxCell id="eOo77v9gysO4AsqZZA_v-8" value="" style="endArrow=classic;html=1;rounded=0;exitX=0.5;exitY=0;exitDx=0;exitDy=0;entryX=0.637;entryY=1.019;entryDx=0;entryDy=0;entryPerimeter=0;" edge="1" parent="1" source="eOo77v9gysO4AsqZZA_v-7" target="r9BbCS2eWBdrAhoELMwX-13">
          <mxGeometry width="50" height="50" relative="1" as="geometry">
            <mxPoint x="1600" y="375" as="sourcePoint" />
            <mxPoint x="1650" y="325" as="targetPoint" />
            <Array as="points">
              <mxPoint x="1595" y="288" />
            </Array>
          </mxGeometry>
        </mxCell>
        <mxCell id="eOo77v9gysO4AsqZZA_v-9" value="&lt;font style=&quot;font-size: 10px;&quot;&gt;WRITE_ADDR&lt;/font&gt;" style="text;html=1;align=center;verticalAlign=middle;resizable=0;points=[];autosize=1;strokeColor=none;fillColor=none;" vertex="1" parent="1">
          <mxGeometry x="580" y="710" width="90" height="30" as="geometry" />
        </mxCell>
        <mxCell id="eOo77v9gysO4AsqZZA_v-10" value="&lt;font style=&quot;font-size: 6px;&quot;&gt;IMM[31:20]&lt;/font&gt;" style="text;html=1;align=center;verticalAlign=middle;resizable=0;points=[];autosize=1;strokeColor=none;fillColor=none;" vertex="1" parent="1">
          <mxGeometry x="506" y="400" width="50" height="30" as="geometry" />
        </mxCell>
        <mxCell id="eOo77v9gysO4AsqZZA_v-13" value="&lt;font style=&quot;font-size: 10px;&quot;&gt;[31:0]&lt;/font&gt;" style="text;html=1;align=center;verticalAlign=middle;resizable=0;points=[];autosize=1;strokeColor=none;fillColor=none;" vertex="1" parent="1">
          <mxGeometry x="750" y="418.75" width="50" height="30" as="geometry" />
        </mxCell>
        <mxCell id="eOo77v9gysO4AsqZZA_v-15" style="edgeStyle=orthogonalEdgeStyle;rounded=0;orthogonalLoop=1;jettySize=auto;html=1;exitX=0.25;exitY=1;exitDx=0;exitDy=0;entryX=0.36;entryY=0.995;entryDx=0;entryDy=0;entryPerimeter=0;fillColor=light-dark(#FFFFFF,#FF8000);strokeColor=#B85450;" edge="1" parent="1" source="r9BbCS2eWBdrAhoELMwX-5" target="r9BbCS2eWBdrAhoELMwX-12">
          <mxGeometry relative="1" as="geometry">
            <Array as="points">
              <mxPoint x="613" y="400" />
              <mxPoint x="890" y="400" />
              <mxPoint x="890" y="520" />
              <mxPoint x="1373" y="520" />
            </Array>
          </mxGeometry>
        </mxCell>
        <mxCell id="eOo77v9gysO4AsqZZA_v-16" value="&lt;font style=&quot;font-size: 9px;&quot;&gt;WB_METHOD[1:0]&lt;/font&gt;" style="text;html=1;align=center;verticalAlign=middle;resizable=0;points=[];autosize=1;strokeColor=none;fillColor=none;" vertex="1" parent="1">
          <mxGeometry x="575" y="325" width="100" height="30" as="geometry" />
        </mxCell>
        <mxCell id="eOo77v9gysO4AsqZZA_v-17" value="&lt;font style=&quot;font-size: 9px;&quot;&gt;WB_METHOD[1:0]&lt;/font&gt;" style="text;html=1;align=center;verticalAlign=middle;resizable=0;points=[];autosize=1;strokeColor=none;fillColor=none;" vertex="1" parent="1">
          <mxGeometry x="1320" y="420" width="100" height="30" as="geometry" />
        </mxCell>
        <mxCell id="eOo77v9gysO4AsqZZA_v-20" value="&lt;font style=&quot;font-size: 10px;&quot;&gt;[1:0]&lt;/font&gt;" style="text;html=1;align=center;verticalAlign=middle;resizable=0;points=[];autosize=1;strokeColor=none;fillColor=none;" vertex="1" parent="1">
          <mxGeometry x="1335" y="490" width="40" height="30" as="geometry" />
        </mxCell>
        <mxCell id="UUf20WpHJSjdFGinSqG3-4" style="edgeStyle=orthogonalEdgeStyle;rounded=0;orthogonalLoop=1;jettySize=auto;html=1;entryX=-0.03;entryY=0.559;entryDx=0;entryDy=0;entryPerimeter=0;" edge="1" parent="1">
          <mxGeometry relative="1" as="geometry">
            <mxPoint x="640" y="442" as="sourcePoint" />
            <mxPoint x="809.1000000000001" y="442.48" as="targetPoint" />
            <Array as="points">
              <mxPoint x="640" y="442" />
              <mxPoint x="716" y="442" />
            </Array>
          </mxGeometry>
        </mxCell>
        <mxCell id="UUf20WpHJSjdFGinSqG3-9" value="" style="endArrow=classic;html=1;rounded=0;strokeColor=light-dark(#000000,#00CC00);" edge="1" parent="1">
          <mxGeometry width="50" height="50" relative="1" as="geometry">
            <mxPoint x="510" y="424.88" as="sourcePoint" />
            <mxPoint x="580" y="424.88" as="targetPoint" />
          </mxGeometry>
        </mxCell>
        <mxCell id="UUf20WpHJSjdFGinSqG3-11" value="" style="endArrow=classic;html=1;rounded=0;strokeColor=light-dark(#000000,#00CC00);" edge="1" parent="1">
          <mxGeometry width="50" height="50" relative="1" as="geometry">
            <mxPoint x="510" y="469" as="sourcePoint" />
            <mxPoint x="580" y="469" as="targetPoint" />
          </mxGeometry>
        </mxCell>
        <mxCell id="UUf20WpHJSjdFGinSqG3-14" value="" style="endArrow=classic;html=1;rounded=0;fillColor=#f8cecc;strokeColor=#b85450;entryX=0;entryY=0.75;entryDx=0;entryDy=0;" edge="1" parent="1">
          <mxGeometry width="50" height="50" relative="1" as="geometry">
            <mxPoint x="580" y="300" as="sourcePoint" />
            <mxPoint x="590.2777777777777" y="422.08333333333337" as="targetPoint" />
            <Array as="points">
              <mxPoint x="540" y="300" />
              <mxPoint x="540" y="380" />
              <mxPoint x="590" y="380" />
            </Array>
          </mxGeometry>
        </mxCell>
        <mxCell id="UUf20WpHJSjdFGinSqG3-15" value="&lt;font style=&quot;font-size: 9px;&quot;&gt;IMM_PICK&lt;/font&gt;" style="text;html=1;align=center;verticalAlign=middle;resizable=0;points=[];autosize=1;strokeColor=none;fillColor=none;" vertex="1" parent="1">
          <mxGeometry x="570" y="283.75" width="70" height="30" as="geometry" />
        </mxCell>
        <mxCell id="UUf20WpHJSjdFGinSqG3-16" value="&lt;font style=&quot;font-size: 10px;&quot;&gt;[1:0]&lt;/font&gt;" style="text;html=1;align=center;verticalAlign=middle;resizable=0;points=[];autosize=1;strokeColor=none;fillColor=none;" vertex="1" parent="1">
          <mxGeometry x="535" y="272.5" width="40" height="30" as="geometry" />
        </mxCell>
        <mxCell id="UUf20WpHJSjdFGinSqG3-19" value="&lt;font style=&quot;font-size: 6px;&quot;&gt;IMM[31:25]+[11:7]&lt;/font&gt;" style="text;html=1;align=center;verticalAlign=middle;resizable=0;points=[];autosize=1;strokeColor=none;fillColor=none;" vertex="1" parent="1">
          <mxGeometry x="505" y="423.13" width="70" height="30" as="geometry" />
        </mxCell>
        <mxCell id="UUf20WpHJSjdFGinSqG3-20" value="&lt;font style=&quot;font-size: 6px;&quot;&gt;IMM[31:12]&lt;/font&gt;" style="text;html=1;align=center;verticalAlign=middle;resizable=0;points=[];autosize=1;strokeColor=none;fillColor=none;" vertex="1" parent="1">
          <mxGeometry x="506" y="446.75" width="50" height="30" as="geometry" />
        </mxCell>
        <mxCell id="UUf20WpHJSjdFGinSqG3-22" value="" style="endArrow=classic;html=1;rounded=0;strokeColor=light-dark(#000000,#00CC00);" edge="1" parent="1">
          <mxGeometry width="50" height="50" relative="1" as="geometry">
            <mxPoint x="510" y="448.75" as="sourcePoint" />
            <mxPoint x="580" y="448.75" as="targetPoint" />
          </mxGeometry>
        </mxCell>
        <mxCell id="UUf20WpHJSjdFGinSqG3-24" value="&lt;font style=&quot;font-size: 6px;&quot;&gt;00&lt;/font&gt;" style="text;html=1;align=center;verticalAlign=middle;resizable=0;points=[];autosize=1;strokeColor=none;fillColor=none;" vertex="1" parent="1">
          <mxGeometry x="570" y="410" width="30" height="30" as="geometry" />
        </mxCell>
        <mxCell id="UUf20WpHJSjdFGinSqG3-25" value="&lt;font style=&quot;font-size: 6px;&quot;&gt;01&lt;/font&gt;" style="text;html=1;align=center;verticalAlign=middle;resizable=0;points=[];autosize=1;strokeColor=none;fillColor=none;" vertex="1" parent="1">
          <mxGeometry x="570" y="430" width="30" height="30" as="geometry" />
        </mxCell>
        <mxCell id="UUf20WpHJSjdFGinSqG3-26" value="&lt;font style=&quot;font-size: 6px;&quot;&gt;10&lt;/font&gt;" style="text;html=1;align=center;verticalAlign=middle;resizable=0;points=[];autosize=1;strokeColor=none;fillColor=none;" vertex="1" parent="1">
          <mxGeometry x="570" y="448.75" width="30" height="30" as="geometry" />
        </mxCell>
        <mxCell id="UUf20WpHJSjdFGinSqG3-28" value="&lt;font style=&quot;font-size: 6px;&quot;&gt;0&lt;/font&gt;" style="text;html=1;align=center;verticalAlign=middle;resizable=0;points=[];autosize=1;strokeColor=none;fillColor=none;" vertex="1" parent="1">
          <mxGeometry x="914" y="456" width="30" height="30" as="geometry" />
        </mxCell>
        <mxCell id="UUf20WpHJSjdFGinSqG3-29" value="&lt;font style=&quot;font-size: 6px;&quot;&gt;1&lt;/font&gt;" style="text;html=1;align=center;verticalAlign=middle;resizable=0;points=[];autosize=1;strokeColor=none;fillColor=none;" vertex="1" parent="1">
          <mxGeometry x="914" y="420" width="30" height="30" as="geometry" />
        </mxCell>
        <mxCell id="UUf20WpHJSjdFGinSqG3-30" value="&lt;font style=&quot;font-size: 6px;&quot;&gt;0&lt;/font&gt;&lt;span style=&quot;color: rgba(0, 0, 0, 0); font-family: monospace; font-size: 0px; text-align: start;&quot;&gt;%3CmxGraphModel%3E%3Croot%3E%3CmxCell%20id%3D%220%22%2F%3E%3CmxCell%20id%3D%221%22%20parent%3D%220%22%2F%3E%3CmxCell%20id%3D%222%22%20value%3D%22%26lt%3Bfont%20style%3D%26quot%3Bfont-size%3A%206px%3B%26quot%3B%26gt%3B10%26lt%3B%2Ffont%26gt%3B%22%20style%3D%22text%3Bhtml%3D1%3Balign%3Dcenter%3BverticalAlign%3Dmiddle%3Bresizable%3D0%3Bpoints%3D%5B%5D%3Bautosize%3D1%3BstrokeColor%3Dnone%3BfillColor%3Dnone%3B%22%20vertex%3D%221%22%20parent%3D%221%22%3E%3CmxGeometry%20x%3D%22914%22%20y%3D%22456%22%20width%3D%2230%22%20height%3D%2230%22%20as%3D%22geometry%22%2F%3E%3C%2FmxCell%3E%3C%2Froot%3E%3C%2FmxGraphModel%3E&lt;/span&gt;" style="text;html=1;align=center;verticalAlign=middle;resizable=0;points=[];autosize=1;strokeColor=none;fillColor=none;" vertex="1" parent="1">
          <mxGeometry x="885" y="350" width="30" height="30" as="geometry" />
        </mxCell>
        <mxCell id="UUf20WpHJSjdFGinSqG3-31" value="&lt;font style=&quot;font-size: 6px;&quot;&gt;1&lt;/font&gt;" style="text;html=1;align=center;verticalAlign=middle;resizable=0;points=[];autosize=1;strokeColor=none;fillColor=none;" vertex="1" parent="1">
          <mxGeometry x="886" y="314.05" width="30" height="30" as="geometry" />
        </mxCell>
        <mxCell id="UUf20WpHJSjdFGinSqG3-32" value="&lt;font style=&quot;font-size: 6px;&quot;&gt;0&lt;/font&gt;&lt;span style=&quot;color: rgba(0, 0, 0, 0); font-family: monospace; font-size: 0px; text-align: start;&quot;&gt;%3CmxGraphModel%3E%3Croot%3E%3CmxCell%20id%3D%220%22%2F%3E%3CmxCell%20id%3D%221%22%20parent%3D%220%22%2F%3E%3CmxCell%20id%3D%222%22%20value%3D%22%26lt%3Bfont%20style%3D%26quot%3Bfont-size%3A%206px%3B%26quot%3B%26gt%3B10%26lt%3B%2Ffont%26gt%3B%22%20style%3D%22text%3Bhtml%3D1%3Balign%3Dcenter%3BverticalAlign%3Dmiddle%3Bresizable%3D0%3Bpoints%3D%5B%5D%3Bautosize%3D1%3BstrokeColor%3Dnone%3BfillColor%3Dnone%3B%22%20vertex%3D%221%22%20parent%3D%221%22%3E%3CmxGeometry%20x%3D%22914%22%20y%3D%22456%22%20width%3D%2230%22%20height%3D%2230%22%20as%3D%22geometry%22%2F%3E%3C%2FmxCell%3E%3C%2Froot%3E%3C%2FmxGraphModel%3E&lt;/span&gt;" style="text;html=1;align=center;verticalAlign=middle;resizable=0;points=[];autosize=1;strokeColor=none;fillColor=none;" vertex="1" parent="1">
          <mxGeometry x="1137" y="345.05" width="30" height="30" as="geometry" />
        </mxCell>
        <mxCell id="UUf20WpHJSjdFGinSqG3-33" value="&lt;font style=&quot;font-size: 6px;&quot;&gt;1&lt;/font&gt;" style="text;html=1;align=center;verticalAlign=middle;resizable=0;points=[];autosize=1;strokeColor=none;fillColor=none;" vertex="1" parent="1">
          <mxGeometry x="1138" y="300" width="30" height="30" as="geometry" />
        </mxCell>
        <mxCell id="UUf20WpHJSjdFGinSqG3-36" value="&lt;span style=&quot;font-size: 6px;&quot;&gt;1&lt;/span&gt;" style="text;html=1;align=center;verticalAlign=middle;resizable=0;points=[];autosize=1;strokeColor=none;fillColor=none;" vertex="1" parent="1">
          <mxGeometry x="1597" y="240" width="30" height="30" as="geometry" />
        </mxCell>
        <mxCell id="UUf20WpHJSjdFGinSqG3-37" value="" style="edgeStyle=none;orthogonalLoop=1;jettySize=auto;html=1;rounded=0;entryX=-0.08;entryY=0.516;entryDx=0;entryDy=0;entryPerimeter=0;exitX=0.993;exitY=0.52;exitDx=0;exitDy=0;exitPerimeter=0;" edge="1" parent="1" source="r9BbCS2eWBdrAhoELMwX-37">
          <mxGeometry width="100" relative="1" as="geometry">
            <mxPoint x="1520" y="412.13" as="sourcePoint" />
            <mxPoint x="1559" y="414.13" as="targetPoint" />
            <Array as="points" />
          </mxGeometry>
        </mxCell>
        <mxCell id="UUf20WpHJSjdFGinSqG3-38" value="" style="edgeStyle=none;orthogonalLoop=1;jettySize=auto;html=1;rounded=0;entryX=-0.08;entryY=0.516;entryDx=0;entryDy=0;entryPerimeter=0;exitX=0.993;exitY=0.52;exitDx=0;exitDy=0;exitPerimeter=0;" edge="1" parent="1">
          <mxGeometry width="100" relative="1" as="geometry">
            <mxPoint x="1451" y="414.86" as="sourcePoint" />
            <mxPoint x="1490" y="414.99" as="targetPoint" />
            <Array as="points" />
          </mxGeometry>
        </mxCell>
        <mxCell id="UUf20WpHJSjdFGinSqG3-39" value="&lt;span style=&quot;font-size: 6px;&quot;&gt;0&lt;/span&gt;" style="text;html=1;align=center;verticalAlign=middle;resizable=0;points=[];autosize=1;strokeColor=none;fillColor=none;" vertex="1" parent="1">
          <mxGeometry x="1597" y="280.25" width="30" height="30" as="geometry" />
        </mxCell>
        <mxCell id="UUf20WpHJSjdFGinSqG3-41" value="&lt;font style=&quot;font-size: 10px;&quot;&gt;[31:25]func7&lt;/font&gt;" style="text;html=1;align=center;verticalAlign=middle;resizable=0;points=[];autosize=1;strokeColor=none;fillColor=none;" vertex="1" parent="1">
          <mxGeometry x="510" y="40.000000000000014" width="80" height="30" as="geometry" />
        </mxCell>
        <mxCell id="UUf20WpHJSjdFGinSqG3-46" value="" style="endArrow=classic;html=1;rounded=0;entryX=0;entryY=0.5;entryDx=0;entryDy=0;strokeColor=light-dark(#000000,#00CC00);" edge="1" parent="1" target="UUf20WpHJSjdFGinSqG3-43">
          <mxGeometry width="50" height="50" relative="1" as="geometry">
            <mxPoint x="510" y="110" as="sourcePoint" />
            <mxPoint x="808" y="70" as="targetPoint" />
            <Array as="points">
              <mxPoint x="510" y="67" />
            </Array>
          </mxGeometry>
        </mxCell>
        <mxCell id="UUf20WpHJSjdFGinSqG3-43" value="ALU CONTROL UNIT" style="rounded=0;whiteSpace=wrap;html=1;" vertex="1" parent="1">
          <mxGeometry x="630" y="40" width="80" height="53.75" as="geometry" />
        </mxCell>
        <mxCell id="UUf20WpHJSjdFGinSqG3-47" value="" style="endArrow=classic;html=1;rounded=0;entryX=0;entryY=0.75;entryDx=0;entryDy=0;strokeColor=light-dark(#000000,#00CC00);fontStyle=1" edge="1" parent="1" target="UUf20WpHJSjdFGinSqG3-43">
          <mxGeometry width="50" height="50" relative="1" as="geometry">
            <mxPoint x="600" y="110" as="sourcePoint" />
            <mxPoint x="998" y="94.7" as="targetPoint" />
            <Array as="points">
              <mxPoint x="600" y="80" />
            </Array>
          </mxGeometry>
        </mxCell>
        <mxCell id="UUf20WpHJSjdFGinSqG3-48" value="" style="endArrow=classic;html=1;rounded=0;entryX=-0.107;entryY=0.191;entryDx=0;entryDy=0;entryPerimeter=0;exitX=1.011;exitY=0.045;exitDx=0;exitDy=0;exitPerimeter=0;fillColor=#f8cecc;strokeColor=#b85450;" edge="1" parent="1">
          <mxGeometry width="50" height="50" relative="1" as="geometry">
            <mxPoint x="710" y="70" as="sourcePoint" />
            <mxPoint x="806" y="70" as="targetPoint" />
          </mxGeometry>
        </mxCell>
        <mxCell id="UUf20WpHJSjdFGinSqG3-52" value="" style="endArrow=classic;html=1;rounded=0;strokeColor=light-dark(#000000,#00CC00);" edge="1" parent="1">
          <mxGeometry width="50" height="50" relative="1" as="geometry">
            <mxPoint x="510" y="486" as="sourcePoint" />
            <mxPoint x="580" y="486" as="targetPoint" />
          </mxGeometry>
        </mxCell>
        <mxCell id="UUf20WpHJSjdFGinSqG3-53" value="&lt;font style=&quot;font-size: 6px;&quot;&gt;11&lt;/font&gt;" style="text;html=1;align=center;verticalAlign=middle;resizable=0;points=[];autosize=1;strokeColor=none;fillColor=none;" vertex="1" parent="1">
          <mxGeometry x="570" y="470" width="30" height="30" as="geometry" />
        </mxCell>
        <mxCell id="UUf20WpHJSjdFGinSqG3-55" value="&lt;font style=&quot;font-size: 5px;&quot;&gt;IMM[31]+[7]+[30:25]+[11:8]&lt;/font&gt;" style="text;html=1;align=center;verticalAlign=middle;resizable=0;points=[];autosize=1;strokeColor=none;fillColor=none;" vertex="1" parent="1">
          <mxGeometry x="500" y="464" width="80" height="30" as="geometry" />
        </mxCell>
      </root>
    </mxGraphModel>
  </diagram>
</mxfile>
